<?xml version="1.0" standalone="no"?>
<!DOCTYPE svg PUBLIC "-//W3C//DTD SVG 20010904//EN"
 "http://www.w3.org/TR/2001/REC-SVG-20010904/DTD/svg10.dtd">
<svg version="1.0" xmlns="http://www.w3.org/2000/svg"
 width="600.000000pt" height="1024.000000pt" viewBox="0 0 600.000000 1024.000000"
 preserveAspectRatio="xMidYMid meet">

<g transform="translate(0.000000,1024.000000) scale(0.100000,-0.100000)"
fill="#000000" stroke="none">
<path d="M0 10091 l0 -150 49 -49 c34 -34 52 -61 56 -86 8 -40 10 -41 45 -21
29 17 103 19 130 5 16 -9 22 -3 42 36 83 166 311 160 375 -10 14 -38 16 -116
4 -149 -26 -67 -120 -136 -186 -137 -94 0 -182 68 -210 163 -21 74 -42 91
-102 84 -36 -4 -53 -12 -70 -34 -13 -15 -23 -34 -23 -41 0 -29 -43 -99 -75
-122 l-34 -25 -1 -273 c0 -216 3 -272 13 -266 10 6 10 4 0 -7 -10 -10 -13 -88
-12 -324 l0 -310 40 80 c78 161 223 461 241 503 10 23 25 42 32 42 11 0 64
-76 404 -577 62 -91 111 -172 108 -178 -5 -13 -34 -16 -448 -45 -161 -11 -312
-23 -335 -26 l-43 -5 0 -221 0 -221 46 43 c72 66 123 85 230 85 62 0 96 -4
107 -14 25 -20 21 -41 -8 -41 -69 0 -165 -75 -202 -158 -30 -69 -32 -180 -3
-236 10 -22 17 -42 15 -47 -3 -4 0 -11 6 -15 8 -4 7 -9 -2 -15 -26 -16 2 -22
108 -24 95 -1 113 -5 145 -25 20 -14 41 -32 47 -42 8 -14 -4 -10 -46 14 -51
29 -66 32 -132 32 -48 -1 -76 -5 -79 -12 -2 -7 -7 -10 -11 -8 -4 3 -7 -4 -7
-15 0 -11 6 -17 12 -15 9 4 34 -32 34 -49 0 -11 -59 -3 -110 15 l-55 19 -30
-21 -30 -21 23 25 c12 13 22 27 22 29 0 3 -18 20 -40 38 l-39 32 0 -973 0
-973 41 80 c47 94 44 89 58 80 7 -4 -8 -42 -45 -111 -53 -102 -68 -154 -42
-154 6 0 50 16 97 35 57 23 87 30 91 23 11 -17 -13 -73 -110 -260 l-91 -175 0
-117 0 -118 25 6 c14 4 49 17 78 30 28 13 90 38 137 54 47 17 127 47 178 66
109 42 169 46 214 15 36 -26 39 -34 94 -229 44 -155 53 -225 34 -261 -11 -19
-82 -60 -130 -74 -23 -6 -370 -140 -480 -184 -25 -10 -69 -24 -98 -31 l-52
-12 0 -244 0 -243 33 -5 c17 -3 62 -8 100 -11 78 -7 113 -18 144 -47 l23 -21
52 28 c42 23 64 28 115 27 56 0 67 3 90 26 l26 27 -17 -28 c-14 -22 -15 -31
-5 -43 6 -8 17 -14 24 -14 13 0 56 -57 75 -101 l12 -26 142 2 c77 1 134 0 126
-2 -8 -3 -22 -7 -30 -10 -16 -5 65 -45 139 -68 47 -15 66 -12 55 8 -4 7 3 2
15 -10 16 -17 29 -21 54 -17 56 10 101 25 143 50 44 25 59 23 44 -6 -7 -13
-100 -60 -130 -66 -3 0 -26 -4 -52 -8 -32 -6 -48 -13 -48 -23 0 -24 -42 -113
-54 -114 -6 0 -2 -4 9 -9 16 -7 13 -9 -15 -7 -20 0 -42 9 -52 20 -17 19 -17
21 0 33 19 15 36 18 28 6 -2 -4 -1 -14 3 -21 12 -18 51 39 58 84 5 32 4 35
-19 35 -14 0 -32 -8 -39 -17 -12 -14 -12 -16 0 -8 10 5 12 4 7 -3 -13 -22 -26
-12 -26 18 0 19 -5 30 -14 30 -8 0 -40 14 -72 31 -47 25 -72 31 -124 33 -91 2
-137 -23 -160 -85 -21 -56 -68 -103 -125 -125 -42 -16 -80 -16 -149 0 -16 4
-34 2 -42 -5 -9 -7 -14 -8 -14 -1 0 6 6 12 12 15 8 2 1 14 -19 31 -33 28 -56
68 -67 118 -5 20 -11 26 -24 22 -15 -5 -15 -4 -1 8 14 11 28 51 46 127 7 27
-28 60 -62 61 -12 0 -26 5 -32 11 -9 9 -20 9 -44 0 -19 -6 -35 -7 -38 -2 -3 5
-27 10 -53 12 l-48 4 0 -323 0 -324 36 31 c19 17 38 31 41 31 4 0 -12 -16 -35
-36 l-42 -36 0 -152 0 -153 47 7 c27 4 55 7 63 5 75 -13 100 -20 140 -40 170
-86 241 -305 155 -480 -64 -132 -214 -217 -352 -201 l-53 6 0 -616 0 -615 58
32 c31 18 91 54 132 79 41 26 167 102 280 170 113 67 212 129 221 136 8 8 25
14 36 14 20 0 21 -7 27 -133 5 -110 16 -688 16 -849 l0 -48 1896 0 1896 0 -21
36 c-12 19 -16 32 -11 29 6 -3 17 -19 25 -36 l16 -29 714 0 715 0 0 444 0 444
-47 39 c-27 22 -87 65 -135 97 -49 32 -88 60 -88 62 0 6 141 -83 208 -132 l62
-45 0 456 c0 265 -4 454 -9 451 -7 -5 -284 -70 -606 -143 -38 -8 -92 -22 -119
-29 -56 -16 -96 -18 -96 -6 0 5 41 143 90 308 50 164 107 353 126 419 20 66
39 130 44 143 11 25 35 29 47 8 4 -7 76 -85 158 -172 83 -87 188 -199 235
-249 46 -49 95 -101 107 -114 l23 -24 0 1037 c0 570 -3 1036 -6 1036 -3 0 -19
-9 -34 -20 -51 -36 -111 -53 -195 -53 -104 0 -176 27 -248 93 -126 115 -160
283 -88 436 37 80 96 138 179 177 60 28 76 32 152 31 88 -1 147 -19 211 -65
l29 -20 0 596 0 596 -32 -17 c-47 -24 -138 -14 -183 21 -45 33 -75 93 -75 145
0 69 -52 104 -126 84 -11 -3 -33 -27 -49 -53 -48 -84 -138 -125 -218 -101
-111 33 -165 143 -122 247 20 48 41 71 88 95 113 57 243 -12 267 -142 4 -24
11 -34 21 -31 44 13 81 11 114 -5 36 -17 38 -17 48 1 28 50 103 95 159 95 16
0 45 -7 65 -15 19 -8 37 -15 39 -15 2 0 4 63 4 141 0 132 -1 140 -18 134 -21
-6 -41 0 -372 113 -281 97 -299 104 -339 138 -49 41 -44 86 28 254 33 76 68
161 77 189 16 52 17 52 33 29 8 -13 15 -25 15 -28 -1 -7 29 -29 40 -30 6 0 -4
15 -22 33 -18 18 -32 36 -32 40 0 23 99 -4 395 -107 105 -36 191 -66 193 -66
1 0 2 517 2 1149 l0 1149 -41 7 c-117 20 -317 -24 -484 -106 -39 -20 -52 -23
-35 -10 32 26 178 84 265 106 45 12 110 19 182 19 l113 1 0 118 0 119 -47 -6
c-27 -3 -147 -13 -268 -21 -121 -8 -242 -17 -270 -20 -151 -12 -293 -17 -297
-9 -3 5 73 171 169 369 96 198 180 375 188 393 l14 32 -849 0 -849 0 6 -55
c10 -100 -46 -190 -134 -214 -97 -27 -169 6 -252 118 -21 29 -28 32 -59 26
-71 -13 -91 -40 -97 -131 -11 -164 -153 -247 -297 -173 -52 26 -88 84 -95 150
-4 47 -1 62 25 109 34 64 76 96 138 106 79 11 151 -20 198 -87 l15 -22 35 31
c34 30 73 44 111 39 17 -2 21 6 26 48 3 28 5 51 4 53 -1 1 -343 1 -760 0 -730
-3 -758 -4 -741 -21 10 -10 16 -20 13 -23 -3 -3 -13 6 -22 20 l-17 26 -171 0
-170 0 19 -22 c31 -35 52 -72 62 -109 8 -31 12 -34 43 -32 69 4 136 -18 240
-77 57 -33 107 -60 111 -60 4 0 9 12 11 28 l4 27 2 -27 c0 -16 9 -32 20 -38
34 -18 132 -14 195 9 33 11 61 19 64 17 6 -6 -17 -46 -26 -44 -4 1 -27 -4 -52
-11 -51 -15 -178 -21 -182 -9 -3 9 -11 -89 -11 -139 0 -18 -3 -31 -5 -28 -3 3
-11 0 -19 -6 -10 -9 -13 -8 -13 5 0 9 -4 16 -10 16 -5 0 -10 5 -10 11 0 6 6 9
14 6 24 -10 50 133 27 148 -5 3 -12 1 -16 -5 -4 -6 -11 -8 -16 -5 -5 4 -9 -1
-9 -9 0 -8 -5 -18 -11 -22 -9 -5 -10 3 -5 30 6 31 4 36 -12 36 -11 0 -23 7
-26 16 -4 9 -13 14 -21 10 -9 -3 -15 0 -15 9 0 8 -9 15 -19 15 -11 0 -21 5
-23 11 -5 16 -119 59 -158 59 -47 0 -54 -6 -83 -71 -51 -116 -176 -169 -282
-120 -121 56 -162 190 -98 317 30 59 18 65 -117 63 -65 -1 -117 -6 -114 -10 3
-5 -7 -9 -23 -9 -22 0 -25 2 -13 10 11 7 6 10 -20 10 -27 0 -32 -3 -20 -11 11
-8 7 -9 -15 -3 -16 4 -229 9 -472 11 l-443 4 0 -150z m1975 39 c9 -16 13 -30
11 -30 -3 0 -12 14 -21 30 -9 17 -13 30 -11 30 3 0 12 -13 21 -30z m-1845 -10
c0 -5 -4 -10 -10 -10 -5 0 -10 5 -10 10 0 6 5 10 10 10 6 0 10 -4 10 -10z
m130 -20 c0 -5 -7 -10 -15 -10 -8 0 -15 5 -15 10 0 6 7 10 15 10 8 0 15 -4 15
-10z m3911 -60 c36 6 43 1 25 -19 -11 -12 -14 -21 -7 -26 21 -12 11 -26 -10
-15 -16 9 -25 8 -40 -6 -18 -16 -19 -16 -19 10 0 18 -7 29 -22 35 l-23 8 23 7
c14 5 22 15 22 29 l0 22 18 -23 c10 -13 25 -23 33 -22z m-1491 9 c0 -5 -4 -9
-10 -9 -5 0 -10 7 -10 16 0 8 5 12 10 9 6 -3 10 -10 10 -16z m-1725 -29 c-3
-5 -12 -10 -19 -10 -7 0 -23 -11 -36 -25 -20 -21 -22 -30 -14 -53 5 -16 24
-34 44 -44 23 -11 28 -17 17 -18 -24 0 -77 53 -77 77 0 26 19 49 55 68 35 18
38 18 30 5z m85 -5 c17 -9 30 -18 30 -21 0 -3 -5 -2 -11 2 -7 4 -30 13 -53 20
-28 9 -34 13 -18 13 13 1 36 -6 52 -14z m-860 -25 c0 -5 -4 -10 -10 -10 -5 0
-10 5 -10 10 0 6 5 10 10 10 6 0 10 -4 10 -10z m959 -150 c-1 -30 -2 -28 -13
20 -7 30 -20 69 -29 87 -9 18 -17 36 -16 40 2 25 59 -118 58 -147z m734 79 c4
1 7 -1 7 -4 0 -3 0 -20 -1 -37 l-1 -33 -12 35 c-6 19 -14 40 -18 46 -4 6 -4
14 -1 18 4 4 10 0 13 -9 3 -9 9 -16 13 -16z m627 11 c0 -6 -21 -51 -46 -101
l-45 -91 33 7 c18 4 60 18 92 31 66 27 91 20 68 -17 -11 -17 -50 -104 -119
-268 -9 -21 -18 -30 -24 -24 -9 9 16 73 97 260 l14 32 -72 -25 c-74 -25 -113
-30 -122 -16 -6 11 103 222 115 222 5 0 9 -5 9 -10z m2485 -9 c7 -12 -12 -24
-25 -16 -11 7 -4 25 10 25 5 0 11 -4 15 -9z m-2325 -11 c0 -5 -4 -10 -9 -10
-6 0 -13 5 -16 10 -3 6 1 10 9 10 9 0 16 -4 16 -10z m1260 -55 c0 -8 -7 -15
-15 -15 -16 0 -20 12 -8 23 11 12 23 8 23 -8z m-2006 -21 c4 -9 4 -19 2 -21
-8 -8 -26 8 -26 23 0 19 16 18 24 -2z m63 10 c-3 -3 -12 -4 -19 -1 -8 3 -5 6
6 6 11 1 17 -2 13 -5z m-1 -67 c3 -26 2 -26 -22 -11 -27 18 -30 30 -11 37 21
9 30 2 33 -26z m-850 -23 c-4 -20 -10 -34 -12 -31 -3 3 -2 21 2 41 3 21 9 35
11 32 3 -3 2 -21 -1 -42z m2704 36 c0 -5 -4 -10 -10 -10 -5 0 -10 5 -10 10 0
6 5 10 10 10 6 0 10 -4 10 -10z m1180 0 c0 -5 -7 -10 -15 -10 -8 0 -15 5 -15
10 0 6 7 10 15 10 8 0 15 -4 15 -10z m-2873 -67 c-3 -2 -16 -3 -29 0 l-23 4
23 8 c12 4 23 12 23 19 1 6 3 3 6 -7 3 -10 3 -21 0 -24z m1805 12 c0 -5 -5
-11 -11 -13 -6 -2 -11 4 -11 13 0 9 5 15 11 13 6 -2 11 -8 11 -13z m-1862 -5
c0 -5 -5 -10 -11 -10 -5 0 -7 5 -4 10 3 6 8 10 11 10 2 0 4 -4 4 -10z m-995
-76 c-26 -48 -104 -146 -105 -132 0 5 15 25 34 45 18 21 46 62 61 91 15 29 29
51 32 48 2 -2 -8 -26 -22 -52z m345 36 c0 -5 -5 -10 -11 -10 -5 0 -7 5 -4 10
3 6 8 10 11 10 2 0 4 -4 4 -10z m566 -28 c-17 -16 -18 -16 -5 5 7 12 15 20 18
17 3 -2 -3 -12 -13 -22z m1745 -6 c87 -19 141 -47 198 -105 189 -188 134 -500
-107 -614 -60 -28 -77 -32 -157 -32 -80 0 -97 4 -155 31 -174 83 -263 265
-216 442 21 78 73 159 131 202 67 50 86 59 158 75 79 17 71 17 148 1z m-1811
-26 c0 -5 -2 -10 -4 -10 -3 0 -8 5 -11 10 -3 6 -1 10 4 10 6 0 11 -4 11 -10z
m60 -15 c14 -19 14 -19 -2 -6 -15 11 -21 11 -35 0 -15 -11 -14 -9 1 9 11 12
20 21 20 20 1 -2 8 -12 16 -23z m-126 -20 c-7 -18 17 -20 49 -4 22 10 22 10 2
-6 -25 -20 -59 -16 -63 8 -2 9 1 17 7 17 6 0 8 -7 5 -15z m216 -90 c0 -5 -5
-3 -10 5 -5 8 -10 20 -10 25 0 6 5 3 10 -5 5 -8 10 -19 10 -25z m-522 1 c63
-33 86 -119 46 -173 -26 -35 -64 -43 -64 -15 0 11 7 26 17 33 15 13 15 12 4
-9 -15 -28 -7 -40 17 -26 25 16 41 72 31 108 -21 72 -94 106 -187 87 -84 -17
-168 -63 -292 -161 -128 -101 -233 -178 -297 -216 -72 -43 -48 -19 41 40 47
31 144 103 218 161 135 107 235 167 304 184 49 13 124 6 162 -13z m-619 -30
c-33 -31 -152 -106 -167 -106 -4 0 9 10 28 22 67 40 114 73 138 96 14 12 28
22 31 22 3 0 -10 -15 -30 -34z m1160 -81 c-1 -75 -6 -61 -12 30 -3 41 -1 62 4
50 4 -11 8 -47 8 -80z m921 60 c-20 -24 -4 -65 25 -65 27 0 34 -17 10 -26 -11
-5 -12 -11 -5 -24 11 -20 14 -60 5 -60 -3 0 -19 10 -36 22 l-29 22 -45 -44
c-47 -47 -55 -43 -30 17 20 48 19 52 -15 64 -44 16 -37 27 13 22 39 -4 43 -2
60 26 10 17 15 31 11 31 -3 0 4 9 17 19 27 22 38 19 19 -4z m1810 -75 c-8 -5
-22 -9 -30 -9 -10 0 -8 3 5 9 27 12 43 12 25 0z m116 -16 c18 -14 18 -14 -6
-3 -31 14 -36 19 -24 19 6 0 19 -7 30 -16z m-4206 -20 c0 -11 -5 -14 -16 -10
-16 6 -107 -17 -133 -33 -12 -8 -8 -13 17 -28 45 -25 40 -35 -13 -27 -41 6
-45 4 -46 -15 -4 -56 -12 -60 -39 -16 -15 24 -28 34 -37 31 -41 -16 -61 -17
-66 -2 -4 10 4 18 29 26 35 12 35 12 19 37 -9 14 -13 28 -10 31 4 4 14 -3 22
-15 9 -13 22 -23 29 -23 21 0 17 18 -6 25 -11 3 -20 11 -20 16 0 12 6 11 40
-6 18 -9 31 -11 35 -5 9 15 33 12 37 -4 2 -10 16 -9 68 9 82 28 90 29 90 9z
m1347 -36 c-3 -8 -6 -5 -6 6 -1 11 2 17 5 13 3 -3 4 -12 1 -19z m2664 -1 c-10
-9 -11 -8 -5 6 3 10 9 15 12 12 3 -3 0 -11 -7 -18z m-3356 -71 c8 4 15 2 15
-4 0 -6 -5 -12 -11 -14 -6 -2 -1 -15 11 -31 25 -32 23 -33 -27 -10 -50 23 -50
23 -33 34 13 9 13 10 0 6 -8 -2 -15 -10 -16 -18 -1 -21 -15 -49 -24 -49 -5 0
-5 13 0 29 9 33 5 41 -22 41 -11 0 -17 4 -14 9 3 5 15 7 26 4 13 -3 22 0 25
11 3 9 7 24 10 33 5 14 10 11 25 -15 13 -21 25 -30 35 -26z m681 28 c-4 -9 -9
-15 -11 -12 -3 3 -3 13 1 22 4 9 9 15 11 12 3 -3 3 -13 -1 -22z m-1706 -26
c-14 -6 -38 -17 -54 -25 -16 -7 -32 -13 -35 -13 -11 0 35 27 64 38 39 14 57
14 25 0z m1655 -63 c-21 -31 -48 -61 -59 -67 -13 -6 -7 4 15 26 20 20 44 52
55 71 10 19 20 32 23 30 2 -3 -13 -30 -34 -60z m-1790 0 c-22 -14 -44 -25 -50
-25 -12 0 66 48 80 49 6 0 -8 -11 -30 -24z m5552 -1 c-11 -12 15 -62 36 -68
17 -5 19 -8 8 -15 -11 -7 -11 -15 -3 -39 14 -42 4 -46 -25 -12 -21 26 -28 28
-46 18 -12 -6 -25 -16 -29 -22 -4 -6 -10 -8 -13 -4 -4 3 1 18 11 32 9 15 14
29 11 33 -4 3 3 17 13 31 11 13 20 31 20 38 0 8 5 14 12 14 6 0 9 -3 5 -6z
m-5622 -33 c-3 -5 -24 -24 -48 -41 l-42 -32 45 41 c46 41 56 48 45 32z m5570
-10 c10 -18 -17 -23 -33 -7 -15 15 -15 16 5 16 12 0 24 -4 28 -9z m-3795 -40
c0 -10 -70 -54 -76 -48 -2 2 12 12 31 23 19 10 35 22 35 26 0 5 2 8 5 8 3 0 5
-4 5 -9z m-1870 -29 c0 -4 -10 -13 -22 -21 -23 -14 -23 -14 -4 8 20 22 26 25
26 13z m1775 -31 c-12 -10 -75 -32 -75 -26 0 6 60 33 75 34 6 1 6 -2 0 -8z
m3415 5 c0 -2 -8 -10 -17 -17 -16 -13 -17 -12 -4 4 13 16 21 21 21 13z m-2380
-71 c42 7 49 0 30 -34 -7 -14 -4 -24 15 -41 30 -28 34 -56 8 -45 -10 4 -30 10
-44 12 -24 4 -28 0 -44 -44 -31 -83 -35 -82 -55 20 -9 45 -15 57 -30 57 -25 0
-50 10 -50 21 0 5 14 9 31 9 29 0 31 2 25 26 -4 15 -10 40 -13 57 l-6 31 46
-38 c42 -34 50 -37 87 -31z m3095 45 c-11 -5 -27 -9 -35 -9 -9 0 -8 4 5 9 11
5 27 9 35 9 9 0 8 -4 -5 -9z m-5855 -15 c0 -8 -4 -15 -10 -15 -5 0 -10 7 -10
15 0 8 5 15 10 15 6 0 10 -7 10 -15z m5705 -14 c-6 -5 -21 -11 -35 -15 -21 -5
-20 -3 5 9 35 17 42 18 30 6z m-1097 -30 c3 -8 -1 -12 -9 -9 -7 2 -15 10 -17
17 -3 8 1 12 9 9 7 -2 15 -10 17 -17z m1029 3 c-3 -3 -12 -4 -19 -1 -8 3 -5 6
6 6 11 1 17 -2 13 -5z m-1157 -15 c0 -6 -5 -19 -10 -30 -10 -17 -7 -20 20 -25
16 -4 30 -10 30 -14 0 -10 -26 -20 -50 -20 -19 0 -23 -8 -35 -67 -9 -43 -19
-41 -46 7 -16 28 -28 39 -39 35 -61 -24 -99 -10 -40 15 34 14 36 21 14 56 -9
13 -14 27 -12 30 3 2 26 -1 50 -7 42 -11 48 -11 73 9 30 24 45 28 45 11z
m1120 7 c0 -2 -16 -13 -35 -25 -19 -11 -35 -18 -35 -16 0 5 61 45 68 45 1 0 2
-2 2 -4z m-3135 -25 c3 -5 1 -12 -5 -16 -5 -3 -10 1 -10 9 0 18 6 21 15 7z
m-755 -51 c0 -5 -4 -10 -10 -10 -5 0 -10 5 -10 10 0 6 5 10 10 10 6 0 10 -4
10 -10z m90 -20 c0 -5 -4 -10 -10 -10 -5 0 -10 5 -10 10 0 6 5 10 10 10 6 0
10 -4 10 -10z m600 6 c0 -3 -4 -8 -10 -11 -5 -3 -10 -1 -10 4 0 6 5 11 10 11
6 0 10 -2 10 -4z m2201 -19 c-13 -13 -26 -3 -16 12 3 6 11 8 17 5 6 -4 6 -10
-1 -17z m796 -23 c-3 -3 -12 -4 -19 -1 -8 3 -5 6 6 6 11 1 17 -2 13 -5z m57
-10 c3 -8 2 -12 -3 -9 -5 3 -11 -3 -13 -12 -3 -15 -5 -14 -10 5 -3 12 -2 20 3
16 5 -3 9 0 9 5 0 16 7 13 14 -5z m-2986 -5 c-2 -6 -8 -10 -13 -10 -5 0 -11 4
-13 10 -2 6 4 11 13 11 9 0 15 -5 13 -11z m2827 -9 c-3 -5 -12 -10 -18 -10 -7
0 -6 4 3 10 19 12 23 12 15 0z m-1944 -53 c9 -19 25 -33 38 -35 16 -3 20 -8
16 -21 -3 -9 2 -26 10 -37 22 -29 18 -47 -5 -24 -28 28 -38 25 -63 -17 l-22
-38 -3 53 c-2 37 -7 52 -18 52 -7 0 -14 5 -14 10 0 6 7 10 15 10 11 0 15 11
15 40 0 48 10 51 31 7z m-2571 18 c0 -2 -9 -19 -20 -37 -27 -45 -25 -55 10
-63 36 -8 40 -25 5 -26 -14 -1 -29 -3 -35 -4 -5 -1 -14 -3 -20 -4 -5 0 -10
-12 -10 -25 0 -38 -19 -41 -32 -6 -10 30 -13 32 -54 28 -24 -2 -44 -1 -44 2 0
3 16 14 35 24 37 20 42 34 25 67 -13 23 -7 24 25 3 26 -17 47 -11 79 25 18 19
36 28 36 16z m1034 -24 c24 -25 35 -57 67 -193 21 -90 39 -173 39 -186 0 -46
-27 -80 -82 -100 -208 -76 -546 -184 -590 -189 -96 -10 -110 8 -158 198 -17
68 -40 150 -51 182 -30 90 -53 76 366 218 328 112 364 117 409 70z m389 -10
c17 -25 45 -48 79 -65 48 -23 85 -33 265 -67 30 -6 67 -22 87 -38 l36 -29 38
20 c29 15 50 18 97 15 83 -6 119 -30 152 -99 l27 -58 40 5 c21 3 45 13 52 23
12 16 12 16 11 -2 -2 -13 9 -22 38 -31 22 -6 78 -32 125 -55 74 -38 94 -44
150 -44 47 -1 80 5 118 22 30 13 57 21 60 17 15 -14 -40 -44 -112 -60 -66 -15
-84 -16 -113 -5 -26 9 -38 9 -46 1 -16 -16 -27 -14 -21 4 4 9 -3 16 -20 21
-14 3 -26 10 -26 15 0 5 -5 9 -11 9 -6 0 -23 9 -39 20 -39 28 -122 49 -127 33
-3 -7 -9 -13 -14 -13 -4 0 -6 7 -3 15 7 17 -4 19 -40 5 -18 -6 -27 -19 -32
-45 -10 -55 -78 -119 -142 -135 -45 -10 -58 -10 -95 5 -77 30 -127 97 -127
170 0 18 8 56 17 84 15 48 15 53 0 68 -24 24 -79 40 -109 32 -19 -5 -28 -3
-32 7 -3 9 -21 14 -48 14 -42 0 -168 40 -194 61 -11 9 -15 2 -21 -33 -4 -23
-6 -46 -5 -50 4 -14 -28 -8 -34 5 -2 7 2 27 11 43 22 43 19 56 -20 87 -30 24
-34 31 -25 47 15 28 24 25 53 -19z m3317 22 c0 -10 -4 -24 -9 -31 -5 -9 -8 -3
-7 17 1 32 16 45 16 14z m-258 -88 c9 -20 9 -20 -6 -1 -9 11 -16 27 -15 35 0
14 1 14 6 1 3 -8 10 -24 15 -35z m222 33 c-3 -4 -11 -5 -19 -1 -21 7 -19 12 4
10 11 0 18 -5 15 -9z m-1409 -66 c84 -42 135 -115 140 -202 l3 -45 52 3 c55 4
102 -10 136 -40 20 -18 21 -18 54 23 143 178 440 62 416 -163 -10 -103 -63
-174 -153 -208 -68 -25 -99 -25 -167 0 -98 37 -147 115 -151 238 -3 90 -18
110 -93 119 -44 5 -57 2 -87 -18 -19 -13 -35 -28 -35 -33 0 -21 -63 -84 -107
-106 -121 -62 -275 -3 -329 126 -20 48 -17 125 7 181 51 120 202 181 314 125z
m-445 -27 c0 -8 -4 -15 -10 -15 -5 0 -10 7 -10 15 0 8 5 15 10 15 6 0 10 -7
10 -15z m-509 -72 c-12 -20 -14 -14 -5 12 4 9 9 14 11 11 3 -2 0 -13 -6 -23z
m2031 -217 c30 -6 31 -7 16 -23 -15 -14 -15 -19 -2 -45 12 -22 12 -28 1 -28
-20 0 -36 20 -30 39 3 9 1 12 -4 6 -10 -12 -60 -45 -68 -45 -4 0 -3 14 0 32 6
26 3 34 -16 49 l-24 19 23 0 c16 0 22 6 22 23 0 37 12 40 32 8 12 -18 30 -31
50 -35z m-2652 14 c0 -5 -4 -10 -10 -10 -5 0 -10 5 -10 10 0 6 5 10 10 10 6 0
10 -4 10 -10z m495 -38 l-28 -27 24 31 c13 17 26 30 28 27 3 -2 -8 -16 -24
-31z m205 -22 c0 -8 -7 -2 -15 14 -19 36 -19 45 0 20 8 -10 14 -26 15 -34z
m-680 -10 c0 -5 -5 -10 -11 -10 -5 0 -7 5 -4 10 3 6 8 10 11 10 2 0 4 -4 4
-10z m710 -46 c0 -8 -4 -12 -10 -9 -5 3 -10 10 -10 16 0 5 5 9 10 9 6 0 10 -7
10 -16z m-310 -9 c-7 -8 -17 -15 -23 -15 -6 0 -2 7 9 15 25 19 30 19 14 0z
m362 -27 c-11 -11 -32 -3 -32 12 0 12 34 18 39 7 2 -5 -1 -13 -7 -19z m-412
-13 c-7 -8 -17 -15 -23 -15 -6 0 -2 7 9 15 25 19 30 19 14 0z m2417 -87 c-10
-174 -58 -307 -142 -397 -26 -28 -100 -87 -164 -133 -177 -125 -250 -211 -266
-313 -6 -32 -3 -45 15 -68 40 -50 114 -30 164 46 45 71 27 112 -32 71 -13 -9
-26 -14 -29 -11 -9 10 46 39 69 35 19 -2 23 -9 22 -39 -3 -99 -137 -181 -197
-121 -17 18 -22 34 -21 75 1 104 72 191 275 338 76 55 152 116 168 136 75 90
118 220 128 386 3 53 8 97 11 97 3 0 2 -46 -1 -102z m-1867 62 c-8 -6 -22 -10
-30 -9 -9 0 -5 6 10 14 27 14 44 10 20 -5z m2228 -21 c-2 -6 -8 -10 -13 -10
-5 0 -11 4 -13 10 -2 6 4 11 13 11 9 0 15 -5 13 -11z m-5108 -28 c0 -14 -18
-23 -30 -16 -6 4 -8 11 -5 16 8 12 35 12 35 0z m2160 -36 c0 -2 -10 -9 -22
-15 -22 -11 -22 -10 -4 4 21 17 26 19 26 11z m2674 -77 c4 -46 12 -141 19
-213 21 -234 10 -310 -49 -337 -21 -10 -28 -8 -45 9 -20 19 -20 22 -5 52 9 17
21 31 27 31 6 0 1 -12 -10 -26 -16 -20 -18 -30 -10 -46 23 -42 77 9 88 84 6
39 -4 215 -27 446 -4 45 -4 82 -1 82 4 0 10 -37 13 -82z m-4714 62 c0 -5 -4
-10 -10 -10 -5 0 -10 5 -10 10 0 6 5 10 10 10 6 0 10 -4 10 -10z m1960 -35 c0
-2 -10 -9 -22 -15 -22 -11 -22 -10 -4 4 21 17 26 19 26 11z m-50 -29 c0 -2 -8
-10 -17 -17 -16 -13 -17 -12 -4 4 13 16 21 21 21 13z m3154 -35 c-5 -24 -2
-29 20 -35 36 -9 33 -24 -6 -28 -31 -3 -33 -6 -42 -55 -5 -29 -14 -53 -20 -53
-7 0 -22 20 -34 44 -20 43 -22 45 -59 40 l-38 -6 25 21 c25 20 25 21 7 52 -10
17 -15 34 -13 37 3 2 26 -1 51 -8 42 -12 49 -11 73 7 33 25 43 21 36 -16z
m-5194 19 c0 -5 -4 -10 -10 -10 -5 0 -10 5 -10 10 0 6 5 10 10 10 6 0 10 -4
10 -10z m1473 -46 c108 -76 127 -206 45 -300 -43 -48 -83 -67 -148 -68 -42 0
-68 7 -109 29 -63 34 -93 28 -128 -24 -29 -43 -28 -64 2 -126 45 -91 31 -178
-40 -247 -118 -114 -315 -39 -332 126 -14 137 92 240 226 222 25 -3 55 -13 68
-21 21 -14 24 -14 29 2 17 54 64 112 91 113 20 0 23 15 7 44 -30 60 -11 170
39 225 62 67 173 78 250 25z m1422 20 c57 -20 145 -100 145 -132 0 -26 -3 -27
-35 -6 -93 61 -243 20 -309 -85 -29 -45 -50 -145 -36 -170 8 -13 10 -12 10 9
1 23 2 23 9 5 5 -11 5 -22 2 -25 -4 -3 -11 -16 -17 -29 -7 -17 -13 -21 -18
-13 -4 7 -2 12 3 12 6 0 11 5 11 10 0 19 -17 10 -28 -15 -15 -32 -15 -45 -1
-25 9 13 10 13 6 0 -2 -8 -12 -13 -22 -12 -16 3 -17 2 -6 -12 12 -14 12 -16 0
-11 -22 9 -82 91 -97 132 -18 50 -11 177 12 221 29 56 88 114 141 138 61 29
158 32 230 8z m-1801 -35 c-3 -5 -10 -7 -15 -3 -5 3 -7 10 -3 15 3 5 10 7 15
3 5 -3 7 -10 3 -15z m866 9 c-8 -7 -20 -20 -28 -28 -12 -13 -13 -13 -6 0 12
25 26 40 37 40 6 0 5 -6 -3 -12z m1544 -19 c-3 -5 -10 -7 -15 -3 -5 3 -7 10
-3 15 3 5 10 7 15 3 5 -3 7 -10 3 -15z m-2514 1 c0 -5 -4 -10 -10 -10 -5 0
-10 5 -10 10 0 6 5 10 10 10 6 0 10 -4 10 -10z m-736 -86 c31 -117 28 -115 67
-51 19 31 39 57 46 57 12 0 103 -221 103 -252 0 -42 -19 -12 -56 87 -21 58
-43 106 -49 108 -5 1 -26 -23 -46 -53 -48 -73 -62 -71 -71 9 -4 35 -14 84 -23
109 -18 55 -19 65 -2 60 6 -3 20 -36 31 -74z m3136 55 c0 -5 -7 -9 -15 -9 -15
0 -20 12 -9 23 8 8 24 -1 24 -14z m-2340 -49 c0 -5 -4 -10 -10 -10 -5 0 -10 5
-10 10 0 6 5 10 10 10 6 0 10 -4 10 -10z m2420 -25 c0 -8 -4 -15 -10 -15 -5 0
-10 7 -10 15 0 8 5 15 10 15 6 0 10 -7 10 -15z m254 -57 c4 -40 7 -95 9 -122
l2 -49 60 56 c33 32 65 57 71 57 14 0 22 -56 31 -207 5 -97 4 -113 -9 -113
-12 0 -16 24 -21 136 -3 75 -8 138 -11 142 -4 3 -32 -20 -64 -51 -58 -58 -76
-67 -84 -44 -10 28 -9 267 0 267 6 0 13 -33 16 -72z m-1893 19 c-10 -9 -11 -8
-5 6 3 10 9 15 12 12 3 -3 0 -11 -7 -18z m3397 -84 c-4 -22 -22 -20 -26 1 -2
10 3 16 13 16 10 0 15 -7 13 -17z m-3121 -9 c-3 -3 -12 -4 -19 -1 -8 3 -5 6 6
6 11 1 17 -2 13 -5z m-72 -14 c-3 -5 -16 -15 -28 -21 -19 -9 -19 -8 3 10 28
23 34 26 25 11z m121 -6 c13 -9 34 -31 45 -48 l21 -31 -25 28 c-13 16 -37 37
-53 48 -16 10 -25 19 -21 19 4 0 19 -7 33 -16z m2930 -82 c-4 -3 -12 0 -19 7
-9 9 -9 14 3 21 11 7 16 5 18 -6 2 -9 1 -18 -2 -22z m-3299 -39 c-3 -10 -5 -2
-5 17 0 19 2 27 5 18 2 -10 2 -26 0 -35z m348 37 c3 -5 1 -10 -4 -10 -6 0 -11
5 -11 10 0 6 2 10 4 10 3 0 8 -4 11 -10z m103 -55 c0 -16 -2 -15 -8 5 -11 34
-11 60 0 35 5 -11 8 -29 8 -40z m-187 -2 c-12 -20 -14 -14 -5 12 4 9 9 14 11
11 3 -2 0 -13 -6 -23z m673 -27 c8 3 17 0 22 -7 4 -8 3 -10 -5 -5 -6 4 -19 2
-27 -5 -8 -7 -14 -8 -13 -3 4 23 -2 36 -15 31 -11 -4 -11 -1 -2 18 l11 24 8
-29 c5 -19 12 -27 21 -24z m-777 12 c-3 -7 -5 -2 -5 12 0 14 2 19 5 13 2 -7 2
-19 0 -25z m203 -18 c0 -5 -4 -10 -10 -10 -5 0 -10 5 -10 10 0 6 5 10 10 10 6
0 10 -4 10 -10z m514 -5 c3 -8 1 -15 -4 -15 -6 0 -10 7 -10 15 0 8 2 15 4 15
2 0 6 -7 10 -15z m-1244 -15 c0 -5 -7 -10 -16 -10 -8 0 -12 5 -9 10 3 6 10 10
16 10 5 0 9 -4 9 -10z m544 -16 c3 -8 2 -12 -4 -9 -6 3 -10 10 -10 16 0 14 7
11 14 -7z m283 -21 c-3 -10 -5 -4 -5 12 0 17 2 24 5 18 2 -7 2 -21 0 -30z
m643 12 c11 -14 15 -14 33 2 19 18 20 17 8 -4 -14 -28 -31 -29 -54 -3 -9 11
-13 20 -8 20 5 0 14 -7 21 -15z m514 7 c3 -5 33 -112 66 -238 34 -126 71 -260
81 -299 53 -196 83 -325 77 -331 -8 -7 -36 0 -737 189 -69 19 -127 39 -129 47
-4 11 614 640 630 640 4 0 9 -4 12 -8z m-1314 -52 c0 -5 -4 -10 -10 -10 -5 0
-10 5 -10 10 0 6 5 10 10 10 6 0 10 -4 10 -10z m147 -12 c-3 -8 -6 -5 -6 6 -1
11 2 17 5 13 3 -3 4 -12 1 -19z m-2670 6 c-3 -3 -12 -4 -19 -1 -8 3 -5 6 6 6
11 1 17 -2 13 -5z m2663 -32 c0 -5 -7 -17 -15 -28 -14 -18 -14 -17 -4 9 12 27
19 34 19 19z m-345 -41 c-6 -5 -25 10 -25 20 0 5 6 4 14 -3 8 -7 12 -15 11
-17z m1235 13 c0 -9 -5 -14 -12 -12 -18 6 -21 28 -4 28 9 0 16 -7 16 -16z
m-70 -24 c0 -5 -7 -10 -15 -10 -8 0 -15 5 -15 10 0 6 7 10 15 10 8 0 15 -4 15
-10z m-2400 -15 c0 -8 -4 -15 -10 -15 -5 0 -10 7 -10 15 0 8 5 15 10 15 6 0
10 -7 10 -15z m1533 -5 c-9 -11 -19 -17 -21 -15 -6 6 18 35 29 35 5 0 1 -9 -8
-20z m-2136 -26 c-3 -3 -12 -4 -19 -1 -8 3 -5 6 6 6 11 1 17 -2 13 -5z m70 0
c-3 -3 -12 -4 -19 -1 -8 3 -5 6 6 6 11 1 17 -2 13 -5z m2033 2 c0 -2 -7 -7
-16 -10 -8 -3 -12 -2 -9 4 6 10 25 14 25 6z m-2143 -12 c-3 -3 -12 -4 -19 -1
-8 3 -5 6 6 6 11 1 17 -2 13 -5z m160 0 c-3 -3 -12 -4 -19 -1 -8 3 -5 6 6 6
11 1 17 -2 13 -5z m-251 -36 c10 9 8 5 -4 -9 -15 -17 -20 -29 -13 -34 6 -3 11
-12 11 -18 0 -7 -5 -4 -11 6 -8 14 -14 15 -32 7 -21 -10 -21 -10 -4 4 13 10
17 22 12 38 -5 21 -5 21 8 6 13 -16 15 -16 33 0z m350 -4 c18 -14 18 -14 -6
-3 -31 14 -36 19 -24 19 6 0 19 -7 30 -16z m1109 -30 c14 -4 33 0 47 10 34 24
42 19 18 -11 l-21 -27 28 -22 c31 -26 28 -29 -13 -14 -21 9 -29 7 -40 -7 -7
-10 -14 -26 -14 -36 0 -27 -20 -10 -20 18 0 13 -7 28 -16 33 -11 6 -13 12 -6
16 7 4 8 15 3 29 -4 12 -6 29 -3 37 5 12 7 12 10 -2 2 -10 14 -21 27 -24z
m3245 15 c0 -5 -4 -9 -10 -9 -5 0 -10 7 -10 16 0 8 5 12 10 9 6 -3 10 -10 10
-16z m-4270 -35 c0 -2 -9 0 -20 6 -11 6 -20 13 -20 16 0 2 9 0 20 -6 11 -6 20
-13 20 -16z m4160 -4 c0 -5 -4 -10 -10 -10 -5 0 -10 5 -10 10 0 6 5 10 10 10
6 0 10 -4 10 -10z m-2254 -76 c24 -18 38 -22 67 -17 39 6 43 3 27 -27 -8 -15
-2 -22 31 -45 51 -33 41 -52 -17 -36 -54 15 -53 16 -75 -34 -11 -25 -24 -45
-28 -45 -5 0 -15 23 -21 51 l-13 51 -48 -6 c-60 -8 -66 8 -11 31 48 20 46 16
32 57 -20 61 -6 66 56 20z m2335 13 c-1 -12 -15 -9 -19 4 -3 6 1 10 8 8 6 -3
11 -8 11 -12z m-4674 -59 c-2 -13 -4 -3 -4 22 0 25 2 35 4 23 2 -13 2 -33 0
-45z m493 32 c0 -5 -4 -10 -10 -10 -5 0 -10 5 -10 10 0 6 5 10 10 10 6 0 10
-4 10 -10z m-90 -40 c0 -5 -4 -10 -10 -10 -5 0 -10 5 -10 10 0 6 5 10 10 10 6
0 10 -4 10 -10z m-506 -100 c10 -13 9 -13 -6 -1 -10 7 -18 21 -17 30 0 13 1
14 6 1 3 -8 11 -22 17 -30z m283 5 c32 6 34 5 24 -14 -9 -16 -6 -23 15 -40 15
-12 31 -21 35 -21 5 0 9 -5 9 -11 0 -7 -7 -8 -17 -4 -10 3 -30 9 -45 12 -27 5
-28 4 -28 -36 0 -52 -15 -53 -24 -1 -6 36 -9 40 -36 40 -36 0 -39 13 -7 27 20
9 23 17 20 45 -3 28 -2 30 7 15 10 -15 19 -17 47 -12z m1468 -39 c114 -30 201
-99 248 -197 98 -200 19 -429 -181 -522 -59 -27 -78 -31 -152 -31 -119 1 -185
28 -265 108 -91 91 -110 137 -110 266 0 93 3 111 27 162 79 169 263 260 433
214z m580 -65 c3 -5 1 -12 -5 -16 -5 -3 -10 1 -10 9 0 18 6 21 15 7z m1743
-26 c7 -15 20 -25 33 -25 18 0 19 -2 9 -15 -11 -13 -11 -20 0 -40 18 -33 6
-43 -29 -22 -27 16 -29 16 -51 -8 -28 -30 -45 -33 -30 -6 15 29 12 61 -5 61
-8 0 -15 5 -15 10 0 6 11 10 24 10 19 0 26 7 31 30 8 37 18 38 33 5z m-1838
-65 c0 -5 -4 -10 -10 -10 -5 0 -10 5 -10 10 0 6 5 10 10 10 6 0 10 -4 10 -10z
m-1693 -26 c-3 -3 -12 -4 -19 -1 -8 3 -5 6 6 6 11 1 17 -2 13 -5z m1803 -34
c0 -5 -2 -10 -4 -10 -3 0 -8 5 -11 10 -3 6 -1 10 4 10 6 0 11 -4 11 -10z
m-1926 -35 c-9 -14 -18 -25 -21 -25 -5 0 5 18 20 38 17 22 18 13 1 -13z m346
-25 c6 -11 8 -20 6 -20 -3 0 -10 9 -16 20 -6 11 -8 20 -6 20 3 0 10 -9 16 -20z
m-377 -25 c-3 -9 -8 -14 -10 -11 -3 3 -2 9 2 15 9 16 15 13 8 -4z m417 -26 c0
-6 -4 -7 -10 -4 -5 3 -10 11 -10 16 0 6 5 7 10 4 6 -3 10 -11 10 -16z m18 -44
c-3 -3 -9 2 -12 12 -6 14 -5 15 5 6 7 -7 10 -15 7 -18z m22 -35 c6 -11 8 -20
6 -20 -3 0 -10 9 -16 20 -6 11 -8 20 -6 20 3 0 10 -9 16 -20z m184 -65 c-4 -8
-12 -15 -20 -15 -8 0 -14 7 -14 15 0 8 9 15 20 15 13 0 18 -5 14 -15z m1306
-103 l5 -96 67 57 c66 56 82 65 92 49 9 -16 29 -320 22 -355 -14 -73 -23 -35
-29 116 -3 83 -10 164 -14 180 l-8 27 -63 -51 c-88 -71 -96 -67 -100 55 -1 55
0 106 3 114 11 31 20 -3 25 -96z m-1930 76 c0 -6 -6 -5 -15 2 -8 7 -15 14 -15
16 0 2 7 1 15 -2 8 -4 15 -11 15 -16z m80 18 c0 -2 -7 -9 -15 -16 -13 -11 -14
-10 -9 4 5 14 24 23 24 12z m3330 -26 c0 -22 42 -33 81 -20 47 16 59 8 33 -21
-18 -20 -18 -21 1 -35 10 -8 25 -14 32 -14 7 0 13 -4 13 -9 0 -6 -21 -11 -47
-13 -48 -3 -48 -3 -57 -45 -6 -24 -13 -43 -17 -43 -8 0 -29 64 -29 88 0 8 -16
12 -45 12 -54 0 -58 14 -9 30 34 12 35 14 29 46 -3 21 -2 34 5 34 5 0 10 -4
10 -10z m240 -15 c0 -8 -4 -15 -10 -15 -5 0 -10 7 -10 15 0 8 5 15 10 15 6 0
10 -7 10 -15z m-2910 -61 c0 -8 -4 -12 -10 -9 -5 3 -10 10 -10 16 0 5 5 9 10
9 6 0 10 -7 10 -16z m-955 -4 c3 -5 -1 -10 -9 -10 -9 0 -16 5 -16 10 0 6 4 10
9 10 6 0 13 -4 16 -10z m106 -13 c-1 -12 -15 -9 -19 4 -3 6 1 10 8 8 6 -3 11
-8 11 -12z m612 -17 c3 -11 1 -18 -4 -14 -5 3 -9 12 -9 20 0 20 7 17 13 -6z
m104 -53 c-6 -43 -6 -43 38 -65 63 -30 59 -46 -9 -38 l-54 6 -6 -31 c-3 -17
-6 -47 -6 -65 0 -41 -12 -43 -35 -8 -12 19 -19 23 -25 14 -5 -8 -7 -3 -7 12 0
14 -8 37 -18 51 -18 28 -44 29 -112 1 -27 -11 -33 -11 -33 0 0 7 12 18 28 25
15 7 37 19 50 27 l23 15 -22 36 -23 36 27 -6 c15 -4 38 -10 52 -13 20 -5 25
-2 26 12 1 17 2 17 6 2 6 -24 14 -23 54 6 47 34 53 32 46 -17z m-787 -17 c0
-5 -4 -10 -10 -10 -5 0 -10 5 -10 10 0 6 5 10 10 10 6 0 10 -4 10 -10z m2515
-37 c11 -14 17 -15 39 -5 28 12 40 4 26 -18 -6 -10 -2 -22 12 -37 27 -28 19
-38 -17 -21 -24 11 -29 10 -41 -7 -8 -10 -14 -25 -14 -32 0 -7 -4 -13 -10 -13
-5 0 -10 16 -10 35 0 28 -4 35 -20 35 -23 0 -27 15 -5 24 8 3 15 17 15 31 0
29 8 32 25 8z m1661 -68 c-9 -24 4 -44 38 -62 18 -9 26 -18 18 -21 -7 -2 -20
2 -30 10 -15 11 -16 11 -7 -2 6 -8 12 -28 14 -45 3 -29 2 -29 -16 -12 -26 22
-46 22 -68 -3 -29 -32 -37 -23 -15 19 17 34 18 41 5 51 -22 19 -18 33 8 26 19
-4 25 0 34 24 6 17 14 30 18 30 4 0 5 -7 1 -15z m-3499 -167 c-3 -7 -5 -2 -5
12 0 14 2 19 5 13 2 -7 2 -19 0 -25z m1440 -84 c-3 -3 -12 -4 -19 -1 -8 3 -5
6 6 6 11 1 17 -2 13 -5z m71 -28 c26 -14 67 -43 92 -66 l45 -42 -50 40 c-27
22 -72 51 -100 65 -27 14 -46 26 -42 27 4 0 29 -11 55 -24z m-1541 -18 c-3 -8
-6 -5 -6 6 -1 11 2 17 5 13 3 -3 4 -12 1 -19z m4203 -53 c0 -8 -4 -15 -10 -15
-5 0 -10 7 -10 15 0 8 5 15 10 15 6 0 10 -7 10 -15z m-5390 -36 c0 -5 -7 -9
-15 -9 -15 0 -20 12 -9 23 8 8 24 -1 24 -14z m1157 -21 c-3 -8 -6 -5 -6 6 -1
11 2 17 5 13 3 -3 4 -12 1 -19z m1752 -57 c-2 -6 -10 2 -17 17 -11 25 -11 25
4 10 9 -9 15 -21 13 -27z m2413 7 c-9 -9 -12 -7 -12 12 0 19 3 21 12 12 9 -9
9 -15 0 -24z m-728 -6 c2 -4 -14 -6 -37 -4 -68 5 -76 10 -20 11 28 0 54 -2 57
-7z m-114 -6 c0 -2 -8 -10 -17 -17 -16 -13 -17 -12 -4 4 13 16 21 21 21 13z
m670 -28 c0 -13 -13 -61 -29 -108 -16 -47 -28 -87 -26 -89 2 -2 35 6 74 18 81
25 101 26 101 7 0 -20 -170 -336 -181 -336 -19 0 -7 29 70 170 43 80 77 146
76 147 -1 2 -43 -9 -93 -24 -51 -14 -95 -23 -98 -20 -3 3 6 27 19 54 25 49 37
84 57 161 11 45 30 57 30 20z m-4023 -10 c-3 -8 -6 -5 -6 6 -1 11 2 17 5 13 3
-3 4 -12 1 -19z m3543 7 c7 -9 11 -17 8 -20 -2 -2 -12 4 -21 15 -9 11 -13 20
-8 20 5 0 14 -7 21 -15z m-230 -4 c0 -5 -7 -12 -16 -15 -14 -5 -15 -4 -4 9 14
17 20 19 20 6z m-4360 -11 c0 -5 -4 -10 -10 -10 -5 0 -10 5 -10 10 0 6 5 10
10 10 6 0 10 -4 10 -10z m2435 -5 c17 -4 44 -17 61 -30 36 -28 84 -116 84
-154 0 -131 -117 -226 -243 -199 -52 11 -71 26 -156 122 -21 24 -30 27 -60 21
-60 -11 -80 -40 -90 -127 -10 -93 -36 -138 -97 -174 -118 -70 -264 -4 -295
134 -11 44 -10 57 6 97 9 26 34 64 54 85 79 83 230 70 295 -26 23 -34 25 -35
35 -16 14 26 78 55 118 54 28 -1 33 2 33 21 0 85 72 177 152 195 24 5 50 8 58
7 8 -2 29 -6 45 -10z m2205 -36 c15 -28 5 -23 -15 7 -9 15 -12 23 -6 20 6 -4
16 -16 21 -27z m-307 6 c-3 -9 -8 -14 -10 -11 -3 3 -2 9 2 15 9 16 15 13 8 -4z
m-1456 -47 c-3 -8 -6 -5 -6 6 -1 11 2 17 5 13 3 -3 4 -12 1 -19z m1440 -10
c-3 -7 -5 -2 -5 12 0 14 2 19 5 13 2 -7 2 -19 0 -25z m-2777 12 c0 -5 -7 -10
-16 -10 -8 0 -12 5 -9 10 3 6 10 10 16 10 5 0 9 -4 9 -10z m3128 -15 c-3 -3
-9 2 -12 12 -6 14 -5 15 5 6 7 -7 10 -15 7 -18z m-3651 -42 c-3 -10 -5 -4 -5
12 0 17 2 24 5 18 2 -7 2 -21 0 -30z m2759 -47 c14 -5 15 -9 6 -15 -10 -6 -10
-14 -2 -36 15 -38 5 -43 -32 -15 -26 19 -34 21 -50 11 -17 -11 -19 -10 -13 8
3 11 1 23 -6 27 -9 5 -7 10 7 16 14 6 12 7 -8 3 -16 -3 -28 -1 -28 5 0 5 11
10 25 10 19 0 26 7 31 28 11 46 17 47 35 5 9 -22 25 -43 35 -47z m908 58 c3
-8 2 -12 -4 -9 -6 3 -10 10 -10 16 0 14 7 11 14 -7z m-3034 -4 c0 -5 -4 -10
-9 -10 -6 0 -13 5 -16 10 -3 6 1 10 9 10 9 0 16 -4 16 -10z m1237 -27 c-3 -10
-5 -4 -5 12 0 17 2 24 5 18 2 -7 2 -21 0 -30z m-1614 12 c-3 -9 -8 -14 -10
-11 -3 3 -2 9 2 15 9 16 15 13 8 -4z m3190 -20 c-3 -9 -8 -14 -10 -11 -3 3 -2
9 2 15 9 16 15 13 8 -4z m-3729 -10 c3 -8 2 -15 -3 -15 -5 0 -14 7 -21 15 -10
12 -10 15 3 15 8 0 17 -7 21 -15z m273 -7 c-3 -8 -6 -5 -6 6 -1 11 2 17 5 13
3 -3 4 -12 1 -19z m3691 -14 c-3 -14 -5 -12 -10 9 -3 19 -2 25 4 19 6 -6 8
-18 6 -28z m-3138 -5 c0 -5 -7 -9 -15 -9 -15 0 -20 12 -9 23 8 8 24 -1 24 -14z
m-553 -96 c-2 -21 -4 -6 -4 32 0 39 2 55 4 38 2 -18 2 -50 0 -70z m2888 -50
c-20 -72 -69 -136 -120 -154 -33 -12 -35 -16 -35 -59 0 -49 -26 -112 -59 -147
-33 -35 -37 -27 -5 10 37 44 54 88 54 140 0 37 -4 46 -25 55 -26 12 -34 32
-13 32 6 0 19 -7 29 -16 15 -13 24 -14 52 -5 19 7 44 22 55 34 34 36 64 116
71 186 5 55 7 59 9 26 2 -22 -4 -68 -13 -102z m812 30 c-2 -21 -4 -6 -4 32 0
39 2 55 4 38 2 -18 2 -50 0 -70z m-3486 60 c-12 -20 -14 -14 -5 12 4 9 9 14
11 11 3 -2 0 -13 -6 -23z m216 21 c-3 -3 -12 -4 -19 -1 -8 3 -5 6 6 6 11 1 17
-2 13 -5z m1887 -3 c3 -5 -1 -14 -9 -21 -13 -10 -15 -9 -15 9 0 21 14 28 24
12z m-454 -76 c0 -5 -5 -3 -10 5 -5 8 -10 20 -10 25 0 6 5 3 10 -5 5 -8 10
-19 10 -25z m-1663 -72 c-2 -21 -4 -6 -4 32 0 39 2 55 4 38 2 -18 2 -50 0 -70z
m1709 69 c-4 -3 -14 2 -24 12 -16 18 -16 18 6 6 13 -6 21 -14 18 -18z m-1899
-59 c-3 -10 -5 -4 -5 12 0 17 2 24 5 18 2 -7 2 -21 0 -30z m2253 27 c0 -5 -4
-10 -10 -10 -5 0 -10 5 -10 10 0 6 5 10 10 10 6 0 10 -4 10 -10z m-309 -17
c13 -16 12 -17 -3 -4 -10 7 -18 15 -18 17 0 8 8 3 21 -13z m1399 13 c0 -3 -4
-8 -10 -11 -5 -3 -10 -1 -10 4 0 6 5 11 10 11 6 0 10 -2 10 -4z m320 -108
c-12 -38 -23 -68 -25 -66 -2 2 5 32 15 67 11 34 21 73 21 84 1 18 2 19 6 4 3
-10 -5 -50 -17 -89z m-1690 52 c6 -11 8 -20 6 -20 -3 0 -10 9 -16 20 -6 11 -8
20 -6 20 3 0 10 -9 16 -20z m-2870 -5 c39 20 47 14 31 -22 -14 -30 -3 -43 37
-43 12 0 22 -4 22 -10 0 -5 -18 -10 -39 -10 -33 0 -40 -4 -45 -25 -4 -14 -3
-37 0 -52 10 -41 -11 -17 -26 30 -11 34 -14 37 -51 37 -45 0 -49 11 -14 39 21
16 24 25 19 48 -7 28 -7 28 14 10 19 -17 22 -17 52 -2z m4027 -31 c-3 -3 -12
-4 -19 -1 -8 3 -5 6 6 6 11 1 17 -2 13 -5z m-3278 -129 c51 -68 112 -162 136
-207 84 -160 132 -351 123 -490 -5 -83 -21 -122 -60 -152 l-28 -20 -27 20
c-16 12 -35 40 -43 63 -13 37 -13 45 1 69 18 33 38 38 64 17 20 -16 20 -16 -2
-6 -48 24 -76 -22 -51 -87 16 -42 52 -66 80 -51 76 41 75 264 -3 487 -41 116
-84 193 -188 337 -95 131 -104 145 -98 145 3 0 46 -56 96 -125z m361 90 c0 -5
-5 -3 -10 5 -5 8 -10 20 -10 25 0 6 5 3 10 -5 5 -8 10 -19 10 -25z m2955 25
c3 -6 -1 -7 -9 -4 -18 7 -21 14 -7 14 6 0 13 -4 16 -10z m220 -10 c3 -5 -1
-10 -9 -10 -9 0 -16 5 -16 10 0 6 4 10 9 10 6 0 13 -4 16 -10z m-367 -20 c-7
-10 -14 -17 -17 -15 -4 4 18 35 25 35 2 0 -1 -9 -8 -20z m-2981 -12 c-3 -8 -6
-5 -6 6 -1 11 2 17 5 13 3 -3 4 -12 1 -19z m3584 -65 c-12 -20 -14 -14 -5 12
4 9 9 14 11 11 3 -2 0 -13 -6 -23z m-3368 -13 c3 -11 1 -18 -4 -14 -5 3 -9 12
-9 20 0 20 7 17 13 -6z m1197 -36 c36 7 44 -3 23 -26 -15 -17 -15 -20 11 -47
18 -19 24 -31 16 -36 -6 -4 -16 -2 -23 3 -7 5 -22 13 -34 16 -18 6 -26 0 -45
-33 -13 -23 -26 -41 -30 -41 -4 0 -8 23 -10 52 -3 49 -5 52 -35 60 -43 11 -42
28 1 28 32 0 35 2 41 41 l7 42 26 -33 c20 -26 30 -31 52 -26z m1787 24 c-3 -8
-6 -5 -6 6 -1 11 2 17 5 13 3 -3 4 -12 1 -19z m941 -38 c20 0 23 -3 14 -12 -9
-9 -6 -18 15 -40 33 -35 26 -44 -22 -27 -34 13 -38 12 -54 -10 l-18 -24 -6 29
c-9 49 -10 58 -9 102 l2 44 26 -31 c17 -20 35 -31 52 -31z m-794 35 c3 -9 0
-15 -9 -15 -8 0 -15 7 -15 15 0 8 4 15 9 15 5 0 11 -7 15 -15z m226 1 c0 -2
-7 -9 -15 -16 -13 -11 -14 -10 -9 4 5 14 24 23 24 12z m204 -47 c22 -20 19
-23 -47 -34 -81 -13 -167 -130 -167 -226 0 -54 16 -106 41 -134 19 -21 19 -21
19 -61 0 -25 2 -26 35 -21 19 3 37 1 40 -4 4 -5 -2 -9 -12 -10 -16 0 -16 -1 2
-9 l20 -9 -20 0 c-14 -1 -16 -4 -7 -9 7 -5 10 -16 6 -25 -3 -9 -11 -14 -16
-11 -6 4 -8 -1 -4 -13 6 -19 3 -20 -43 -12 -95 15 -171 67 -216 151 -24 44
-30 68 -33 140 l-4 88 -42 -32 c-30 -23 -26 -17 17 23 31 30 57 61 57 68 0 13
139 155 146 149 2 -3 30 1 61 8 71 15 142 8 167 -17z m-587 -21 c-3 -8 -6 -5
-6 6 -1 11 2 17 5 13 3 -3 4 -12 1 -19z m-2940 -40 c-3 -8 -6 -5 -6 6 -1 11 2
17 5 13 3 -3 4 -12 1 -19z m-162 -30 c0 -6 6 -13 13 -16 8 -2 10 2 5 15 -6 17
-5 17 13 2 10 -9 27 -19 36 -22 11 -4 15 -13 11 -28 l-6 -22 -18 22 c-11 13
-26 21 -36 18 -16 -4 -16 -5 2 -12 11 -5 26 -15 33 -22 8 -7 18 -11 22 -8 5 3
14 -4 20 -15 14 -26 6 -25 -32 2 -30 21 -31 21 -44 3 -8 -10 -14 -25 -14 -32
0 -7 -5 -13 -11 -13 -6 0 -8 13 -5 31 6 38 -1 59 -20 59 -8 0 -14 5 -14 10 0
6 7 10 15 10 9 0 15 9 15 22 0 12 3 18 8 14 4 -4 7 -13 7 -18z m3065 -2 c0 -2
-8 -10 -17 -17 -16 -13 -17 -12 -4 4 13 16 21 21 21 13z m1305 -6 c-3 -5 -10
-10 -16 -10 -5 0 -9 5 -9 10 0 6 7 10 16 10 8 0 12 -4 9 -10z m-2060 -88 c30
14 43 5 24 -18 -11 -14 -10 -19 11 -35 l25 -19 -36 0 c-33 0 -39 -4 -58 -42
l-21 -43 0 43 c0 38 -2 42 -25 42 -31 0 -32 14 -3 27 19 8 22 17 20 54 l-3 44
20 -32 c19 -30 23 -32 46 -21z m615 -27 c-7 -8 -17 -15 -23 -15 -6 0 -2 7 9
15 25 19 30 19 14 0z m-1195 -76 c361 -106 444 -132 498 -157 58 -27 81 -57
56 -73 -11 -7 -10 -9 5 -9 29 0 15 -56 -55 -227 -72 -173 -89 -200 -132 -211
-21 -5 -34 -16 -38 -33 l-7 -24 -1 25 c-1 21 -8 28 -38 36 -21 6 -94 28 -163
48 -69 21 -134 39 -145 42 -34 6 -269 81 -306 97 -53 22 -81 59 -81 104 0 21
28 111 62 200 33 89 63 176 66 193 4 16 8 30 10 30 2 0 76 -71 164 -159 l160
-158 -15 -29 c-19 -36 -19 -48 0 -84 19 -37 72 -56 108 -39 24 11 57 62 57 88
0 16 27 25 169 58 69 15 117 29 109 31 -9 2 -59 -8 -111 -22 -138 -36 -183
-41 -193 -23 -15 24 -49 37 -85 31 -33 -5 -40 1 -186 149 -84 85 -153 158
-153 164 0 16 89 -2 245 -48z m1070 21 c-3 -5 -12 -10 -18 -10 -7 0 -6 4 3 10
19 12 23 12 15 0z m375 -4 c0 -2 -8 -10 -17 -17 -16 -13 -17 -12 -4 4 13 16
21 21 21 13z m-2883 -32 c-9 -9 -28 6 -21 18 4 6 10 6 17 -1 6 -6 8 -13 4 -17z
m2463 16 c-8 -5 -19 -10 -25 -10 -5 0 -3 5 5 10 8 5 20 10 25 10 6 0 3 -5 -5
-10z m-1906 -69 c10 -8 22 -8 41 -1 34 13 40 8 23 -19 -11 -18 -9 -24 20 -54
37 -38 33 -53 -9 -32 -49 26 -69 15 -69 -36 0 -35 -20 -19 -26 21 -6 39 -8 40
-47 40 -33 0 -37 2 -28 14 6 8 25 19 42 26 21 9 30 19 28 34 0 12 0 32 1 46
l3 25 4 -27 c2 -14 10 -31 17 -37z m1841 49 c-3 -5 -14 -10 -23 -9 -14 0 -13
2 3 9 27 11 27 11 20 0z m445 5 c0 -2 -10 -9 -22 -15 -22 -11 -22 -10 -4 4 21
17 26 19 26 11z m-2690 -21 c0 -8 -5 -12 -10 -9 -6 4 -8 11 -5 16 9 14 15 11
15 -7z m2197 0 c-3 -3 -12 -4 -19 -1 -8 3 -5 6 6 6 11 1 17 -2 13 -5z m443 -9
c0 -2 -13 -11 -30 -20 -38 -19 -40 -11 -2 9 31 17 32 18 32 11z m-525 -15
c-27 -12 -43 -12 -25 0 8 5 22 9 30 9 10 0 8 -3 -5 -9z m-65 -20 c-8 -5 -19
-10 -25 -10 -5 0 -3 5 5 10 8 5 20 10 25 10 6 0 3 -5 -5 -10z m-2130 -10 c0
-5 -4 -10 -10 -10 -5 0 -10 5 -10 10 0 6 5 10 10 10 6 0 10 -4 10 -10z m3498
-20 c-13 -40 -31 -50 -22 -13 8 35 13 43 24 43 5 0 4 -14 -2 -30z m-858 16 c0
-2 -7 -7 -16 -10 -8 -3 -12 -2 -9 4 6 10 25 14 25 6z m-581 -10 c-10 -9 -69
-36 -69 -32 0 7 52 35 64 36 5 0 7 -2 5 -4z m-2161 -166 c-3 -71 -2 -130 0
-130 7 0 123 99 139 118 20 24 46 7 39 -25 -3 -16 -8 -93 -11 -173 -7 -170
-12 -210 -27 -210 -11 0 -5 257 8 343 l6 39 -73 -62 c-82 -68 -106 -84 -112
-73 -3 5 -1 58 3 118 5 61 9 127 9 148 1 20 6 37 12 37 8 0 10 -37 7 -130z
m2057 110 c-3 -5 -12 -10 -18 -10 -7 0 -6 4 3 10 19 12 23 12 15 0z m1260 -10
c3 -5 -1 -10 -9 -10 -9 0 -16 5 -16 10 0 6 4 10 9 10 6 0 13 -4 16 -10z
m-4105 -20 c0 -5 -7 -10 -16 -10 -8 0 -12 5 -9 10 3 6 10 10 16 10 5 0 9 -4 9
-10z m75 -50 c3 -5 -1 -10 -9 -10 -8 0 -18 5 -21 10 -3 6 1 10 9 10 8 0 18 -4
21 -10z m-75 -68 c0 -13 -12 -22 -22 -16 -10 6 -1 24 13 24 5 0 9 -4 9 -8z
m3251 -35 c-1 -12 -15 -9 -19 4 -3 6 1 10 8 8 6 -3 11 -8 11 -12z m134 -27 c3
-5 -1 -10 -9 -10 -9 0 -16 5 -16 10 0 6 4 10 9 10 6 0 13 -4 16 -10z m300 -30
c18 -28 24 -30 58 -24 37 6 52 -8 22 -20 -23 -8 -18 -29 15 -61 48 -46 39 -57
-27 -34 -61 21 -59 22 -89 -33 -21 -40 -30 -34 -30 19 1 45 0 47 -34 55 -64
17 -62 26 13 42 24 6 27 11 27 46 0 49 17 52 45 10z m-370 -50 c3 -5 -1 -10
-10 -10 -9 0 -13 5 -10 10 3 6 8 10 10 10 2 0 7 -4 10 -10z m-1794 -43 c16
-22 182 -265 383 -560 59 -87 105 -164 103 -171 -3 -8 -34 -15 -84 -19 -421
-32 -825 -59 -829 -55 -7 8 6 37 276 593 50 105 96 200 101 213 11 28 29 28
50 -1z m-281 -17 c0 -5 -4 -10 -10 -10 -5 0 -10 5 -10 10 0 6 5 10 10 10 6 0
10 -4 10 -10z m-120 -10 c0 -5 -4 -10 -10 -10 -5 0 -10 5 -10 10 0 6 5 10 10
10 6 0 10 -4 10 -10z m62 -115 c0 -5 -5 -11 -11 -13 -6 -2 -11 4 -11 13 0 9 5
15 11 13 6 -2 11 -8 11 -13z m2032 -60 c74 -31 128 -107 130 -181 l1 -41 62 1
c49 1 67 -4 93 -22 17 -13 33 -22 34 -20 2 1 9 13 15 25 19 38 109 83 164 83
80 0 158 -45 193 -112 18 -35 18 -136 0 -179 -24 -57 -94 -111 -158 -123 -120
-22 -238 82 -238 212 0 73 -14 98 -64 112 -57 16 -86 2 -136 -64 -62 -82 -143
-112 -237 -85 -112 31 -176 170 -130 279 44 101 173 156 271 115z m-3187 -42
c-3 -3 -11 -2 -17 2 -9 6 -9 10 1 16 14 8 27 -7 16 -18z m-225 1 c29 -15 42
-15 82 2 16 6 18 4 14 -20 -5 -23 0 -31 31 -52 19 -13 41 -24 48 -24 20 0 4
-26 -23 -39 -30 -13 -45 -14 -24 -1 19 11 11 18 -28 26 -35 7 -35 6 -35 -73 0
-36 -16 -45 -24 -13 -3 11 -9 20 -14 20 -5 0 -8 3 -8 8 3 19 -2 33 -10 28 -5
-3 -12 1 -15 10 -4 10 -2 13 7 8 9 -5 9 -4 0 6 -26 28 -97 7 -77 -23 5 -7 1
-4 -8 6 -26 27 -23 36 18 53 26 11 35 20 31 32 -18 56 -19 62 -8 62 7 0 26 -7
43 -16z m338 6 c0 -5 -4 -10 -10 -10 -5 0 -10 5 -10 10 0 6 5 10 10 10 6 0 10
-4 10 -10z m-77 -25 c-3 -9 -8 -14 -10 -11 -3 3 -2 9 2 15 9 16 15 13 8 -4z
m-32 -48 c-10 -9 -11 -8 -5 6 3 10 9 15 12 12 3 -3 0 -11 -7 -18z m2566 -29
c-3 -7 -5 -2 -5 12 0 14 2 19 5 13 2 -7 2 -19 0 -25z m-2527 12 c0 -5 -2 -10
-4 -10 -3 0 -8 5 -11 10 -3 6 -1 10 4 10 6 0 11 -4 11 -10z m4888 -61 c-6 -19
-14 -36 -17 -39 -4 -3 -13 -18 -21 -34 -30 -59 -35 -66 -47 -66 -6 0 -15 -10
-18 -21 -5 -15 -10 -18 -15 -9 -5 8 -13 4 -27 -14 -11 -14 -24 -22 -28 -18 -5
4 -4 0 1 -8 17 -29 13 -45 -6 -20 l-18 24 -23 -19 c-12 -11 -19 -14 -15 -7 4
7 1 12 -8 12 -9 0 -16 -4 -16 -9 0 -5 -9 -7 -20 -4 -11 3 -20 0 -20 -6 0 -6
-9 -11 -21 -11 -27 0 -109 -45 -136 -76 -28 -31 -29 -53 -4 -96 58 -101 16
-225 -96 -282 -98 -49 -233 12 -273 126 -13 35 -21 44 -44 46 -16 2 -36 -4
-47 -14 -10 -9 -19 -14 -19 -10 0 15 -42 -17 -52 -40 -8 -16 -17 -23 -29 -19
-11 4 -24 -3 -37 -19 -10 -14 -22 -23 -26 -19 -3 3 -15 -4 -26 -17 -11 -13
-23 -20 -27 -17 -4 4 -16 -2 -27 -12 -12 -11 -25 -20 -31 -20 -5 -1 -25 -6
-43 -12 -25 -8 -32 -15 -27 -28 4 -9 9 -27 10 -40 4 -24 25 -54 25 -35 0 6 -5
15 -11 21 -7 7 -6 12 5 16 11 4 13 1 9 -10 -5 -12 -3 -14 7 -8 9 5 11 4 6 -3
-4 -7 -1 -12 6 -12 23 0 -15 -20 -39 -20 -16 0 -23 6 -23 19 0 11 -4 22 -10
26 -5 3 -6 13 -3 22 4 10 2 14 -4 10 -6 -4 -14 3 -18 16 -4 14 -8 17 -12 9 -4
-10 -8 -10 -21 0 -14 11 -15 10 -8 -7 16 -40 18 -55 7 -55 -6 0 -10 3 -10 8 4
26 -21 62 -44 62 -7 0 -6 -4 3 -10 8 -5 11 -12 7 -17 -11 -10 -27 17 -27 45 0
20 3 21 28 15 86 -23 182 9 317 106 103 75 121 84 173 91 40 4 45 9 56 41 32
92 107 152 190 152 29 0 68 -7 86 -17 45 -22 51 -21 83 19 35 44 95 79 182
106 105 32 149 55 193 99 35 36 49 62 84 150 16 40 31 1 16 -41z m32 -24 c0
-5 -5 -3 -10 5 -5 8 -10 20 -10 25 0 6 5 3 10 -5 5 -8 10 -19 10 -25z m-5210
5 c8 -5 11 -10 5 -10 -5 0 -17 5 -25 10 -8 5 -10 10 -5 10 6 0 17 -5 25 -10z
m27 -12 c-3 -8 -6 -5 -6 6 -1 11 2 17 5 13 3 -3 4 -12 1 -19z m1010 -8 c47
-28 65 -71 62 -144 -2 -33 0 -80 5 -103 5 -27 2 -70 -9 -127 -19 -101 -10
-153 32 -186 14 -11 24 -23 21 -26 -12 -11 -68 59 -74 92 -4 20 1 72 11 122
18 95 11 161 -16 153 -56 -17 -99 13 -66 46 14 14 22 15 46 6 17 -6 32 -8 35
-5 12 11 6 84 -9 112 -51 98 -159 91 -254 -16 -22 -26 -41 -43 -41 -37 0 16
86 99 121 116 45 22 97 21 136 -3z m1163 4 c0 -8 -5 -12 -10 -9 -6 4 -8 11 -5
16 9 14 15 11 15 -7z m639 -53 c1 -35 -5 -22 -12 24 -5 28 -4 34 3 20 5 -11 9
-31 9 -44z m-579 -22 c0 -5 -4 -9 -10 -9 -5 0 -10 7 -10 16 0 8 5 12 10 9 6
-3 10 -10 10 -16z m-2270 -29 c-6 -11 -13 -20 -16 -20 -2 0 0 9 6 20 6 11 13
20 16 20 2 0 0 -9 -6 -20z m5240 -6 c0 -8 -5 -12 -10 -9 -6 4 -8 11 -5 16 9
14 15 11 15 -7z m-680 -24 c0 -5 -5 -10 -11 -10 -5 0 -7 5 -4 10 3 6 8 10 11
10 2 0 4 -4 4 -10z m-1693 -22 c-3 -8 -6 -5 -6 6 -1 11 2 17 5 13 3 -3 4 -12
1 -19z m2359 -19 c11 -18 -16 -55 -56 -78 -44 -25 -46 -25 -53 -8 -4 10 1 13
17 10 34 -7 102 69 73 80 -9 4 -9 6 0 6 6 1 15 -4 19 -10z m-179 -41 c-3 -8
-6 -5 -6 6 -1 11 2 17 5 13 3 -3 4 -12 1 -19z m-118 -38 c6 0 11 5 11 10 0 6
-5 10 -12 10 -6 0 -8 3 -4 7 3 4 19 -8 34 -27 21 -25 34 -32 50 -28 12 4 22 2
22 -3 0 -12 -57 -12 -65 1 -3 5 -20 13 -37 18 -20 5 -32 15 -34 27 -3 19 -2
19 10 3 7 -10 18 -18 25 -18z m153 -9 c-3 -9 -1 -12 6 -7 6 3 13 2 16 -3 6
-10 -33 -23 -46 -15 -4 3 -8 10 -8 15 0 6 6 7 13 3 9 -6 8 -3 -1 9 -12 14 -11
16 6 14 13 -1 18 -6 14 -16z m-4685 -107 c-3 -3 -12 -4 -19 -1 -8 3 -5 6 6 6
11 1 17 -2 13 -5z m57 -19 c25 -19 16 -19 -20 0 -16 8 -22 15 -14 15 8 -1 24
-7 34 -15z m4616 -25 c0 -5 -5 -10 -11 -10 -5 0 -7 5 -4 10 3 6 8 10 11 10 2
0 4 -4 4 -10z m-2662 -47 c-3 -25 0 -28 25 -25 32 4 35 -10 6 -30 -19 -12 -20
-17 -10 -37 18 -32 6 -38 -27 -14 -26 19 -29 20 -39 4 -6 -9 -14 -13 -18 -9
-11 11 25 57 41 51 8 -3 14 1 14 8 0 7 -3 10 -6 6 -3 -3 -18 -1 -32 4 -22 8
-23 8 -12 -6 19 -23 -4 -18 -26 6 l-19 21 40 -3 c35 -4 40 -1 40 16 0 17 11
34 23 35 1 0 1 -12 0 -27z m2582 2 c0 -8 -4 -15 -10 -15 -5 0 -10 7 -10 15 0
8 5 15 10 15 6 0 10 -7 10 -15z m-5444 -10 c-11 -8 -25 -15 -30 -15 -6 1 0 7
14 15 32 19 40 18 16 0z m772 -48 c-3 -20 -5 -19 -21 10 -23 43 -21 57 4 32
11 -11 19 -30 17 -42z m-893 -17 c-3 -5 -12 -10 -18 -10 -7 0 -6 4 3 10 19 12
23 12 15 0z m970 -20 c-3 -5 -13 -10 -21 -10 -8 0 -14 -5 -14 -11 0 -6 -6 -9
-14 -6 -8 3 -27 -3 -43 -15 -19 -13 -16 -8 9 16 24 22 47 36 63 36 15 0 24 -4
20 -10z m4700 0 c3 -5 -3 -10 -14 -10 -12 0 -21 5 -21 10 0 6 6 10 14 10 8 0
18 -4 21 -10z m-3667 -24 c24 -12 30 -12 47 0 33 24 47 18 40 -19 -6 -28 -3
-35 19 -47 37 -19 32 -33 -9 -26 -34 7 -35 6 -41 -34 -4 -22 -10 -40 -13 -40
-4 0 -14 19 -22 43 -15 40 -18 42 -62 45 -53 4 -62 17 -17 27 37 8 44 19 30
45 -13 24 -8 25 28 6z m1127 4 c3 -5 1 -10 -4 -10 -6 0 -11 5 -11 10 0 6 2 10
4 10 3 0 8 -4 11 -10z m368 -26 c12 3 32 9 45 12 25 7 29 -7 7 -26 -17 -14
-20 -40 -5 -40 6 0 10 -7 10 -15 0 -11 -7 -14 -24 -9 -20 5 -27 0 -39 -23 -8
-15 -12 -34 -10 -40 3 -7 0 -13 -5 -13 -5 0 -15 20 -21 45 -9 34 -16 45 -31
45 -23 0 -27 15 -5 24 9 3 15 19 15 41 l0 35 21 -21 c14 -14 28 -19 42 -15z
m1286 -13 c-8 -17 -17 -31 -22 -31 -4 0 -2 10 5 23 11 20 13 25 17 44 0 3 4 4
7 0 3 -3 0 -20 -7 -36z m-3630 -32 c-25 -16 -33 -9 -13 10 10 10 21 14 23 8 2
-5 -3 -13 -10 -18z m-889 17 c0 -2 -8 -10 -17 -17 -16 -13 -17 -12 -4 4 13 16
21 21 21 13z m650 -42 c0 -10 -20 -3 -41 16 l-24 20 33 -16 c17 -8 32 -17 32
-20z m3760 23 c0 -2 -10 -12 -22 -23 l-23 -19 19 23 c18 21 26 27 26 19z
m-4455 -17 c-3 -5 -16 -15 -28 -21 -19 -9 -19 -8 3 10 28 23 34 26 25 11z
m4523 -20 c-7 -10 -14 -18 -15 -16 -6 6 9 36 18 36 5 0 4 -9 -3 -20z m-887
-13 c-13 -13 -26 -3 -16 12 3 6 11 8 17 5 6 -4 6 -10 -1 -17z m-3711 -18 c-27
-21 -71 -47 -55 -32 19 18 68 53 74 53 3 0 -5 -9 -19 -21z m4554 -16 c-57 -51
-65 -56 -59 -42 3 8 20 24 38 37 38 26 48 29 21 5z m-2323 -8 c-18 -8 -36 -15
-40 -15 -13 1 45 29 59 29 8 0 0 -6 -19 -14z m113 6 c4 -5 -3 -7 -14 -4 -23 6
-26 13 -6 13 8 0 17 -4 20 -9z m-1924 -11 c0 -5 -7 -10 -15 -10 -8 0 -15 5
-15 10 0 6 7 10 15 10 8 0 15 -4 15 -10z m1248 -130 c17 -28 10 -35 -18 -20
-17 9 -26 8 -46 -5 -13 -8 -24 -20 -24 -25 0 -6 -4 -10 -10 -10 -5 0 -7 12 -4
28 5 30 -2 43 -31 60 -19 11 -19 11 3 12 14 0 22 6 23 18 1 9 2 22 4 27 1 6 3
14 3 19 2 10 80 -71 100 -104z m484 71 c-15 -21 -29 -37 -31 -35 -4 4 47 74
54 74 3 0 -8 -18 -23 -39z m1816 -60 c28 -55 52 -106 52 -115 0 -20 -23 -20
-110 -1 -36 7 -66 12 -67 11 -1 -1 25 -36 58 -77 85 -104 129 -165 129 -178 0
-21 -17 -4 -120 125 -128 160 -129 172 -20 149 109 -24 107 -27 50 78 -54 102
-56 107 -37 107 6 0 36 -45 65 -99z m-1553 39 c9 -32 3 -25 -19 20 -12 25 -13
31 -3 20 8 -8 18 -26 22 -40z m1890 30 c3 -5 -1 -10 -10 -10 -9 0 -13 5 -10
10 3 6 8 10 10 10 2 0 7 -4 10 -10z m-3999 -27 c-10 -10 -19 5 -10 18 6 11 8
11 12 0 2 -7 1 -15 -2 -18z m3394 17 c0 -5 -7 -10 -16 -10 -8 0 -12 5 -9 10 3
6 10 10 16 10 5 0 9 -4 9 -10z m1010 -34 c0 -36 23 -49 71 -41 39 7 40 6 30
-13 -6 -12 -16 -24 -22 -27 -7 -5 -4 -14 7 -26 23 -25 13 -33 -21 -17 -25 11
-29 10 -61 -28 l-35 -39 3 50 c3 50 3 50 -29 53 -18 2 -33 7 -33 12 0 5 15 10
33 12 30 3 32 6 35 46 3 44 22 60 22 18z m-2499 -47 c-5 -13 -10 -19 -10 -12
-1 15 10 45 15 40 3 -2 0 -15 -5 -28z m-1811 13 c0 -13 -12 -22 -22 -16 -10 6
-1 24 13 24 5 0 9 -4 9 -8z m2027 -44 c-2 -13 -4 -5 -4 17 -1 22 1 32 4 23 2
-10 2 -28 0 -40z m-313 6 c3 -8 2 -12 -4 -9 -6 3 -10 10 -10 16 0 14 7 11 14
-7z m1169 -29 c120 -31 200 -96 251 -204 27 -58 31 -76 30 -151 0 -116 -28
-185 -103 -261 -74 -74 -145 -102 -256 -103 -67 0 -90 4 -140 27 -81 38 -116
67 -158 129 -142 214 -39 497 203 562 71 19 103 19 173 1z m-2047 -36 c71 -43
110 -128 100 -214 l-6 -53 34 0 c39 0 70 -14 109 -50 20 -19 32 -24 41 -17 58
43 73 49 126 53 100 7 175 -33 211 -113 63 -138 -39 -304 -189 -305 -144 -1
-242 137 -201 284 14 52 5 81 -35 105 -50 31 -113 24 -139 -16 -4 -7 -29 -25
-55 -40 -77 -46 -180 -36 -249 24 -65 57 -85 171 -44 256 28 57 49 76 113 99
63 22 136 17 184 -13z m903 -3 c-3 -3 -11 5 -18 17 -13 21 -12 21 5 5 10 -10
16 -20 13 -22z m276 -16 c-9 -41 -17 -33 -9 9 4 17 9 30 11 27 3 -2 2 -19 -2
-36z m-1932 -14 c3 -8 18 -22 32 -32 20 -13 31 -15 49 -6 31 14 41 4 19 -20
-15 -17 -15 -20 13 -49 l29 -30 -45 3 c-42 3 -46 1 -60 -29 -18 -38 -30 -42
-30 -10 0 46 -11 65 -43 72 l-32 7 32 9 c18 5 31 15 28 22 -10 34 -13 77 -6
77 5 0 11 -6 14 -14z m3657 -53 c0 -5 -4 -15 -10 -23 -11 -18 -25 -7 -17 15 6
15 27 21 27 8z m-1780 -83 c-6 -11 -13 -20 -16 -20 -2 0 0 9 6 20 6 11 13 20
16 20 2 0 0 -9 -6 -20z m3320 -81 c0 -5 -7 -9 -15 -9 -15 0 -20 12 -9 23 8 8
24 -1 24 -14z m-100 -48 c0 -6 -4 -13 -10 -16 -5 -3 -10 1 -10 9 0 9 5 16 10
16 6 0 10 -4 10 -9z m-3326 -46 c-9 -14 -18 -25 -21 -25 -5 0 5 18 20 38 17
22 18 13 1 -13z m-31 -50 c-3 -9 -8 -14 -10 -11 -3 3 -2 9 2 15 9 16 15 13 8
-4z m3467 5 c0 -5 -7 -10 -15 -10 -8 0 -15 5 -15 10 0 6 7 10 15 10 8 0 15 -4
15 -10z m-3505 -80 c-9 -16 -18 -30 -21 -30 -2 0 2 14 11 30 9 17 18 30 21 30
2 0 -2 -13 -11 -30z m215 20 c0 -5 -5 -10 -11 -10 -5 0 -7 5 -4 10 3 6 8 10
11 10 2 0 4 -4 4 -10z m-1558 -110 c9 -13 19 -18 35 -14 14 4 23 2 23 -5 0 -6
-4 -11 -10 -11 -16 0 -12 -30 5 -36 8 -4 15 -10 15 -15 0 -5 -13 -3 -29 6 -29
14 -30 14 -55 -18 l-26 -32 0 36 c0 26 -5 39 -17 44 -16 6 -16 8 4 18 21 12
23 15 23 37 0 17 19 11 32 -10z m1305 -42 c-3 -7 -5 -2 -5 12 0 14 2 19 5 13
2 -7 2 -19 0 -25z m-1076 -46 c-33 -47 -82 -86 -187 -147 -117 -69 -173 -125
-235 -231 -25 -43 -60 -104 -78 -134 -18 -30 -31 -48 -29 -40 2 8 32 67 68
130 76 135 163 229 257 278 83 43 160 102 191 146 14 20 27 34 30 32 2 -3 -5
-18 -17 -34z m3544 28 c3 -5 -1 -10 -9 -10 -9 0 -16 5 -16 10 0 6 4 10 9 10 6
0 13 -4 16 -10z m-2478 -47 c-3 -10 -5 -2 -5 17 0 19 2 27 5 18 2 -10 2 -26 0
-35z m1603 -3 c0 -5 -4 -10 -10 -10 -5 0 -10 5 -10 10 0 6 5 10 10 10 6 0 10
-4 10 -10z m110 0 c0 -5 -7 -10 -15 -10 -8 0 -15 5 -15 10 0 6 7 10 15 10 8 0
15 -4 15 -10z m680 -35 c0 -8 -4 -15 -9 -15 -13 0 -22 16 -14 24 11 11 23 6
23 -9z m-2586 -16 c-3 -5 -10 -7 -15 -3 -5 3 -7 10 -3 15 3 5 10 7 15 3 5 -3
7 -10 3 -15z m2826 7 c0 -3 -4 -8 -10 -11 -5 -3 -10 -1 -10 4 0 6 5 11 10 11
6 0 10 -2 10 -4z m-2623 -28 c-3 -8 -6 -5 -6 6 -1 11 2 17 5 13 3 -3 4 -12 1
-19z m1638 -18 c3 -5 -1 -10 -10 -10 -9 0 -13 5 -10 10 3 6 8 10 10 10 2 0 7
-4 10 -10z m1115 0 c0 -5 -5 -10 -11 -10 -5 0 -7 5 -4 10 3 6 8 10 11 10 2 0
4 -4 4 -10z m-3036 -21 c-3 -5 -10 -7 -15 -3 -5 3 -7 10 -3 15 3 5 10 7 15 3
5 -3 7 -10 3 -15z m-1265 -85 c25 -32 26 -48 3 -96 -17 -37 -182 -216 -182
-198 0 6 38 48 84 93 86 85 108 124 98 175 -6 32 -40 46 -75 33 -35 -14 -37
-45 -2 -39 13 3 22 1 19 -3 -8 -13 -52 -11 -60 3 -10 16 41 58 71 58 14 0 32
-11 44 -26z m-339 -24 c0 -5 -4 -10 -10 -10 -5 0 -10 5 -10 10 0 6 5 10 10 10
6 0 10 -4 10 -10z m2151 -41 c60 -26 139 -108 139 -144 0 -30 -4 -31 -37 -5
-55 43 -156 49 -228 13 -36 -18 -115 -93 -115 -109 0 -6 -7 -17 -16 -25 -10
-8 -13 -21 -9 -36 3 -14 1 -23 -6 -23 -6 0 -9 -7 -6 -14 4 -10 1 -13 -9 -9
-10 4 -12 0 -8 -11 3 -9 -3 -32 -15 -51 -25 -43 -26 -49 -7 -42 10 4 13 1 9
-9 -8 -22 -24 -13 -60 35 -42 54 -57 111 -50 188 19 207 224 325 418 242z
m426 -4 c0 -8 -4 -12 -9 -9 -5 3 -6 10 -3 15 9 13 12 11 12 -6z m-2677 -45 c0
-5 -4 -10 -10 -10 -5 0 -10 5 -10 10 0 6 5 10 10 10 6 0 10 -4 10 -10z m104
-21 c-3 -5 -10 -7 -15 -3 -5 3 -7 10 -3 15 3 5 10 7 15 3 5 -3 7 -10 3 -15z
m2546 -70 c0 -6 -4 -7 -10 -4 -5 3 -10 11 -10 16 0 6 5 7 10 4 6 -3 10 -11 10
-16z m258 -21 c58 22 63 17 31 -35 -21 -33 -21 -35 -3 -48 50 -36 58 -44 52
-50 -3 -4 -15 -2 -26 4 -12 6 -32 11 -47 11 -22 0 -30 -9 -51 -55 -14 -30 -29
-55 -33 -55 -5 0 -11 25 -14 55 -3 30 -8 59 -12 65 -3 5 -26 10 -51 10 -24 0
-44 4 -44 9 0 4 21 16 46 26 46 17 46 18 41 56 -3 21 -3 40 0 43 3 2 17 -9 32
-26 l26 -30 53 20z m2494 -33 c0 -5 -5 -11 -11 -13 -6 -2 -11 4 -11 13 0 9 5
15 11 13 6 -2 11 -8 11 -13z m-1042 -9 c0 -2 -8 -10 -17 -17 -16 -13 -17 -12
-4 4 13 16 21 21 21 13z m913 -79 c34 -58 53 -73 71 -58 8 7 17 8 20 3 3 -6
-1 -15 -9 -22 -13 -11 -12 -17 10 -46 43 -57 31 -68 -37 -33 l-41 21 -43 -43
c-48 -47 -59 -48 -45 -3 22 70 22 80 -5 92 -14 7 -34 12 -44 12 -11 0 -20 5
-20 10 0 6 20 10 45 10 48 0 49 1 60 63 3 20 8 37 10 37 1 0 15 -19 28 -43z
m-3748 23 c3 -6 -3 -23 -14 -38 l-20 -29 27 -20 27 -21 -34 2 c-32 1 -36 -2
-51 -42 l-16 -44 -13 41 c-10 36 -15 41 -41 41 -35 0 -40 19 -10 38 17 10 19
16 9 33 -14 27 -7 32 24 18 22 -10 31 -8 59 9 38 25 44 26 53 12z m2775 0 c0
-5 -5 -10 -11 -10 -5 0 -7 5 -4 10 3 6 8 10 11 10 2 0 4 -4 4 -10z m1130 -15
c0 -8 -4 -15 -10 -15 -5 0 -10 7 -10 15 0 8 5 15 10 15 6 0 10 -7 10 -15z
m-480 -11 c0 -8 -4 -12 -10 -9 -5 3 -10 10 -10 16 0 5 5 9 10 9 6 0 10 -7 10
-16z m-716 -48 c-16 -19 -37 -45 -47 -58 -17 -22 -17 -22 -1 7 18 30 64 85 72
85 2 0 -9 -15 -24 -34z m-3732 -1 c0 -5 -5 -11 -11 -13 -6 -2 -11 4 -11 13 0
9 5 15 11 13 6 -2 11 -8 11 -13z m1470 -91 c-6 -11 -11 -13 -16 -5 -4 6 -2 11
3 11 6 0 12 12 12 28 2 23 2 23 6 5 2 -12 0 -30 -5 -39z m-1967 -39 c38 -29
49 -34 66 -25 27 15 42 4 28 -22 -10 -19 -7 -26 25 -55 47 -44 47 -57 -3 -49
-22 3 -46 9 -55 12 -16 6 -32 -21 -45 -79 -10 -44 -25 -33 -37 28 -6 31 -13
57 -15 59 -4 4 -73 15 -96 16 -7 0 -13 7 -13 15 0 9 14 17 39 21 57 9 62 15
51 54 -20 71 -12 75 55 25z m545 31 c0 -3 -4 -8 -10 -11 -5 -3 -10 -1 -10 4 0
6 5 11 10 11 6 0 10 -2 10 -4z m3610 -20 c0 -2 -7 -9 -15 -16 -13 -11 -14 -10
-9 4 5 14 24 23 24 12z m-27 -56 c-3 -12 -8 -19 -11 -16 -5 6 5 36 12 36 2 0
2 -9 -1 -20z m-1803 -50 c0 -11 -4 -20 -9 -20 -14 0 -23 18 -16 30 10 17 25
11 25 -10z m1784 -19 c-4 -17 -9 -30 -11 -27 -3 2 -2 19 2 36 9 41 17 33 9 -9z
m893 3 c-3 -3 -12 -4 -19 -1 -8 3 -5 6 6 6 11 1 17 -2 13 -5z m50 0 c-3 -3
-12 -4 -19 -1 -8 3 -5 6 6 6 11 1 17 -2 13 -5z m-147 -14 c-8 -5 -19 -10 -25
-10 -5 0 -3 5 5 10 8 5 20 10 25 10 6 0 3 -5 -5 -10z m-1030 -20 c0 -5 -4 -10
-10 -10 -5 0 -10 5 -10 10 0 6 5 10 10 10 6 0 10 -4 10 -10z m1307 -6 c-3 -3
-12 -4 -19 -1 -8 3 -5 6 6 6 11 1 17 -2 13 -5z m-1066 -84 c10 -6 19 -15 19
-21 0 -6 -8 -3 -17 7 -12 12 -18 13 -21 4 -4 -10 -6 -10 -12 0 -10 15 -40 6
-70 -22 -13 -13 -21 -16 -18 -7 2 8 23 23 46 34 36 17 42 25 43 55 l2 35 4
-37 c3 -25 11 -42 24 -48z m1129 60 c22 -11 40 -23 40 -25 0 -5 -79 32 -89 41
-11 10 14 2 49 -16z m-4435 -50 c36 -18 63 -35 61 -38 -3 -2 -21 6 -41 18 -42
26 -125 50 -175 50 -20 0 -60 -6 -90 -14 -69 -18 -78 -12 -14 8 79 26 180 16
259 -24z m2569 7 c20 1 36 -4 36 -9 0 -6 8 -17 18 -24 15 -12 14 -13 -15 -14
-26 0 -33 -5 -43 -32 -12 -33 -12 -33 -19 -8 -5 15 -14 24 -24 24 -19 -2 -23
11 -6 21 6 4 8 20 4 38 -4 23 -3 28 4 17 6 -8 24 -14 45 -13z m1473 -19 c-3
-8 -6 -5 -6 6 -1 11 2 17 5 13 3 -3 4 -12 1 -19z m512 -4 c14 -12 -19 -1 -35
12 -18 14 -18 14 6 3 14 -6 27 -13 29 -15z m-1548 -7 c-13 -13 -26 -3 -16 12
3 6 11 8 17 5 6 -4 6 -10 -1 -17z m-1111 -23 c24 -5 30 -11 27 -25 -3 -11 0
-16 8 -13 6 3 17 -1 23 -9 12 -14 35 -158 47 -300 12 -124 -10 -151 -140 -177
-33 -6 -148 -32 -255 -57 -228 -52 -337 -64 -374 -40 -32 21 -42 54 -66 227
-11 80 -22 152 -25 160 -13 46 -13 69 1 63 9 -3 12 0 9 9 -8 20 36 32 530 138
142 31 166 33 215 24z m1387 -16 c-3 -8 -6 -5 -6 6 -1 11 2 17 5 13 3 -3 4
-12 1 -19z m787 6 c3 -8 2 -12 -4 -9 -6 3 -10 10 -10 16 0 14 7 11 14 -7z
m-3905 -89 c16 -22 47 -76 70 -120 24 -44 48 -86 53 -93 6 -7 9 -15 6 -18 -6
-5 -25 26 -78 129 -19 37 -59 98 -89 135 -34 43 -42 56 -22 37 18 -16 45 -48
60 -70z m3168 -4 c10 -6 13 -11 7 -11 -16 0 -41 31 -48 60 -4 18 -2 17 9 -7 8
-17 23 -36 32 -42z m968 49 c-10 -11 -22 -20 -28 -20 -5 0 1 9 14 20 31 25 37
25 14 0z m-938 -32 c-3 -7 -5 -2 -5 12 0 14 2 19 5 13 2 -7 2 -19 0 -25z m779
22 c5 -5 22 -11 36 -12 15 -1 25 -5 22 -9 -2 -4 -14 -5 -27 -2 -25 7 -67 33
-51 33 5 0 14 -4 20 -10z m-3592 -14 c-28 -13 -47 -32 -82 -82 -7 -11 -6 -5 2
12 18 37 71 84 94 84 9 -1 3 -7 -14 -14z m196 4 c8 -5 11 -10 5 -10 -5 0 -17
5 -25 10 -8 5 -10 10 -5 10 6 0 17 -5 25 -10z m2307 -15 c20 -8 44 -25 55 -37
16 -19 21 -20 28 -8 7 11 10 8 10 -13 0 -16 5 -38 12 -50 12 -23 18 -243 6
-224 -4 7 -8 21 -8 32 0 17 -4 16 -31 -13 -44 -47 -86 -66 -149 -66 -69 -1
-134 35 -169 93 -34 54 -59 67 -105 51 -54 -17 -76 -52 -76 -118 0 -104 -67
-188 -166 -206 -123 -24 -251 102 -229 223 13 71 72 147 124 159 53 12 76 14
117 7 38 -5 56 -16 95 -55 47 -47 48 -48 66 -28 27 30 68 48 107 48 33 0 34 1
41 48 18 128 154 206 272 157z m100 -17 c-3 -7 -5 -2 -5 12 0 14 2 19 5 13 2
-7 2 -19 0 -25z m-2297 -33 c13 -16 -1 -8 -76 43 -11 7 -1 3 22 -7 22 -11 47
-27 54 -36z m-1869 12 c-13 -13 -26 -3 -16 12 3 6 11 8 17 5 6 -4 6 -10 -1
-17z m129 4 c0 -6 -4 -13 -10 -16 -5 -3 -10 1 -10 9 0 9 5 16 10 16 6 0 10 -4
10 -9z m1785 -59 c-3 -3 -11 0 -18 7 -9 10 -8 11 6 5 10 -3 15 -9 12 -12z
m-890 -94 c-15 -29 -34 -61 -42 -71 -25 -26 -9 -31 64 -20 38 6 72 7 76 3 10
-9 -137 -240 -153 -240 -18 0 -11 21 24 69 18 25 46 68 61 95 l28 48 -64 -7
c-115 -13 -119 -10 -70 53 17 20 42 61 56 90 18 36 30 51 37 44 7 -7 1 -28
-17 -64z m455 23 c5 -19 5 -31 -1 -31 -5 0 -9 9 -9 19 0 11 -3 28 -7 38 -3 10
-3 15 1 12 4 -4 11 -20 16 -38z m200 -26 c0 -5 -9 5 -20 23 -26 42 -26 56 0
17 11 -16 20 -34 20 -40z m2910 20 c0 -2 -16 -33 -35 -69 l-36 -64 67 15 c39
9 70 11 75 6 9 -9 -116 -213 -139 -227 -29 -18 -15 19 38 100 33 49 60 92 60
95 0 4 -26 0 -57 -7 -71 -17 -83 -17 -83 -2 0 20 85 158 98 158 6 0 12 -2 12
-5z m-3017 -110 c18 -8 26 -14 19 -15 -25 0 -71 30 -92 62 l-22 33 32 -33 c17
-18 45 -40 63 -47z m263 48 c-10 -10 -19 5 -10 18 6 11 8 11 12 0 2 -7 1 -15
-2 -18z m172 2 c-3 -3 -9 2 -12 12 -6 14 -5 15 5 6 7 -7 10 -15 7 -18z m-348
-49 c0 -2 -7 -7 -16 -10 -8 -3 -12 -2 -9 4 6 10 25 14 25 6z m-256 -103 c15
-18 26 -33 22 -33 -10 0 -57 55 -72 85 l-14 30 17 -25 c10 -13 31 -39 47 -57z
m436 57 c0 -5 -4 -10 -10 -10 -5 0 -10 5 -10 10 0 6 5 10 10 10 6 0 10 -4 10
-10z m90 -10 c0 -5 -4 -10 -10 -10 -5 0 -10 5 -10 10 0 6 5 10 10 10 6 0 10
-4 10 -10z m97 -82 c-3 -8 -6 -5 -6 6 -1 11 2 17 5 13 3 -3 4 -12 1 -19z
m2202 -88 c0 -9 -4 -8 -9 5 -5 11 -9 27 -9 35 0 9 4 8 9 -5 5 -11 9 -27 9 -35z
m1068 1 c13 5 31 9 39 9 12 0 12 -3 -1 -24 -15 -23 -14 -25 10 -44 35 -28 32
-34 -17 -30 l-43 3 -9 -42 c-6 -24 -13 -43 -17 -43 -4 0 -10 20 -13 44 -7 46
-19 56 -62 56 -35 0 -30 17 9 29 31 10 33 14 29 48 l-5 36 28 -26 c23 -21 33
-24 52 -16z m-1060 -43 c-3 -8 -6 -5 -6 6 -1 11 2 17 5 13 3 -3 4 -12 1 -19z
m-2312 2 c-3 -5 -12 -10 -18 -10 -7 0 -6 4 3 10 19 12 23 12 15 0z m2243 -12
c-1 -7 3 -28 11 -45 10 -24 20 -33 37 -33 27 0 33 -24 8 -34 -14 -5 -12 -12
10 -52 38 -69 33 -82 -16 -40 -23 20 -47 36 -54 36 -13 0 -69 -59 -76 -82 -3
-7 -9 -10 -13 -6 -4 4 3 33 15 65 20 54 20 59 5 68 -10 5 -27 18 -39 28 -21
17 -20 18 23 15 l45 -3 15 48 c8 26 18 47 23 47 5 0 8 -6 6 -12z m1372 -53 c0
-8 -7 -15 -15 -15 -16 0 -20 12 -8 23 11 12 23 8 23 -8z m-2380 -5 c0 -5 -4
-10 -10 -10 -5 0 -10 5 -10 10 0 6 5 10 10 10 6 0 10 -4 10 -10z m-2390 -18
c0 -13 -12 -22 -22 -16 -10 6 -1 24 13 24 5 0 9 -4 9 -8z m4900 -2 c0 -5 -4
-10 -10 -10 -5 0 -10 5 -10 10 0 6 5 10 10 10 6 0 10 -4 10 -10z m-4765 -28
c0 -18 -20 -15 -23 4 -3 10 1 15 10 12 7 -3 13 -10 13 -16z m3685 9 c0 -6 -4
-13 -10 -16 -5 -3 -10 1 -10 9 0 9 5 16 10 16 6 0 10 -4 10 -9z m-313 -23 c-3
-8 -6 -5 -6 6 -1 11 2 17 5 13 3 -3 4 -12 1 -19z m-1022 2 c3 -5 -1 -10 -9
-10 -9 0 -16 5 -16 10 0 6 4 10 9 10 6 0 13 -4 16 -10z m1055 -74 c0 -12 -5
-7 -19 24 -11 24 -11 24 3 6 9 -11 16 -24 16 -30z m1290 -6 c0 -11 -4 -20 -10
-20 -5 0 -10 9 -10 20 0 11 5 20 10 20 6 0 10 -9 10 -20z m-2490 -5 c0 -8 -4
-15 -10 -15 -5 0 -10 7 -10 15 0 8 5 15 10 15 6 0 10 -7 10 -15z m1430 5 c0
-5 -4 -10 -10 -10 -5 0 -10 5 -10 10 0 6 5 10 10 10 6 0 10 -4 10 -10z m-3750
-15 c0 -8 -4 -15 -9 -15 -13 0 -22 16 -14 24 11 11 23 6 23 -9z m3558 -70 c-3
-3 -9 2 -12 12 -6 14 -5 15 5 6 7 -7 10 -15 7 -18z"/>
<path d="M4135 10020 c3 -5 8 -10 11 -10 2 0 4 5 4 10 0 6 -5 10 -11 10 -5 0
-7 -4 -4 -10z"/>
<path d="M3546 9621 c-125 -51 -198 -139 -226 -275 -22 -107 17 -231 100 -312
179 -177 467 -130 577 94 25 50 28 68 28 152 0 81 -4 103 -26 150 -34 73 -106
145 -177 178 -78 35 -204 41 -276 13z m180 -76 c9 -13 24 -27 35 -30 26 -8 42
-42 35 -71 -7 -27 -57 -57 -89 -52 -19 3 -16 7 18 23 26 13 41 28 43 43 4 25
-23 41 -41 23 -20 -20 -30 -12 -23 19 6 34 -16 52 -37 31 -16 -16 -27 -13 -27
8 0 38 62 42 86 6z m-187 -21 c85 -50 199 -342 177 -455 -3 -20 -20 -50 -38
-68 -37 -38 -68 -37 -128 3 -47 31 -68 69 -50 91 20 24 52 14 70 -20 8 -16 20
-33 25 -37 18 -13 53 -8 59 8 11 28 6 99 -10 153 l-15 52 -30 -26 c-46 -38
-79 -33 -127 19 -57 61 -75 136 -52 215 22 79 60 100 119 65z m354 -159 c3
-13 -141 -84 -170 -85 -53 0 -13 36 84 76 59 24 83 27 86 9z m-76 -135 c-5
-45 -4 -50 13 -50 15 0 20 7 20 25 0 27 24 35 34 10 3 -8 12 -12 21 -9 20 8
20 -25 0 -40 -13 -9 -14 -17 -4 -44 6 -18 9 -35 6 -39 -11 -10 -24 7 -31 38
-6 30 -7 31 -44 24 -52 -9 -64 7 -51 65 16 66 17 70 30 70 8 0 10 -15 6 -50z"/>
<path d="M3464 9445 c-10 -53 2 -104 34 -150 55 -78 110 -37 84 63 -15 55 -60
116 -90 120 -17 3 -22 -4 -28 -33z"/>
<path d="M2985 9410 c-8 -13 -1 -24 14 -19 6 3 7 10 2 18 -6 10 -10 10 -16 1z"/>
<path d="M2960 9360 c0 -19 31 -23 48 -6 15 15 14 16 -16 16 -18 0 -32 -5 -32
-10z"/>
<path d="M3017 9344 c-12 -12 -8 -23 13 -34 23 -12 26 -2 7 24 -7 9 -16 14
-20 10z"/>
<path d="M2940 9319 c-15 -28 -7 -34 14 -10 11 12 13 21 7 25 -5 4 -15 -3 -21
-15z"/>
<path d="M510 9280 c-12 -8 -11 -10 8 -10 12 0 22 5 22 10 0 13 -11 13 -30 0z"/>
<path d="M515 9240 c3 -5 8 -10 11 -10 2 0 4 5 4 10 0 6 -5 10 -11 10 -5 0 -7
-4 -4 -10z"/>
<path d="M1340 9246 c0 -9 5 -16 10 -16 6 0 10 4 10 9 0 6 -4 13 -10 16 -5 3
-10 -1 -10 -9z"/>
<path d="M5769 9127 c-1 -9 -2 -23 -3 -29 -1 -7 -8 -19 -16 -26 -8 -7 1 -5 20
5 28 14 31 18 16 21 -15 3 -16 6 -5 13 11 6 11 11 1 21 -9 9 -12 9 -13 -5z"/>
<path d="M5797 9074 c-3 -5 1 -15 9 -22 16 -14 18 -5 5 17 -5 7 -11 9 -14 5z"/>
<path d="M2780 8962 c0 -24 8 -32 26 -25 19 7 18 16 -6 31 -17 10 -20 10 -20
-6z"/>
<path d="M2875 8940 c-3 -5 -2 -10 4 -10 5 0 13 5 16 10 3 6 2 10 -4 10 -5 0
-13 -4 -16 -10z"/>
<path d="M2810 8920 c-18 -11 -13 -16 28 -25 25 -5 32 -3 32 8 0 24 -34 33
-60 17z"/>
<path d="M2801 8868 c1 -7 4 -24 8 -38 l7 -25 17 31 c9 17 13 34 10 38 -11 11
-43 6 -42 -6z"/>
<path d="M4470 8890 c0 -6 7 -10 15 -10 8 0 15 2 15 4 0 2 -7 6 -15 10 -8 3
-15 1 -15 -4z"/>
<path d="M4499 8864 c-11 -13 -9 -14 17 -8 40 9 54 24 22 24 -14 0 -31 -7 -39
-16z"/>
<path d="M4510 8832 c0 -13 29 -48 30 -35 0 6 3 18 6 27 4 12 0 16 -15 16 -12
0 -21 -4 -21 -8z"/>
<path d="M3460 8705 c0 -8 4 -15 10 -15 5 0 7 7 4 15 -4 8 -8 15 -10 15 -2 0
-4 -7 -4 -15z"/>
<path d="M3468 8673 c7 -3 16 -2 19 1 4 3 -2 6 -13 5 -11 0 -14 -3 -6 -6z"/>
<path d="M3455 8639 c-9 -28 -2 -33 13 -9 6 11 8 21 3 25 -5 3 -13 -4 -16 -16z"/>
<path d="M843 8703 c-15 -5 -17 -23 -4 -23 5 0 11 7 15 15 3 8 4 15 3 14 -1 0
-8 -3 -14 -6z"/>
<path d="M780 8690 c0 -5 5 -10 11 -10 5 0 7 5 4 10 -3 6 -8 10 -11 10 -2 0
-4 -4 -4 -10z"/>
<path d="M801 8670 c-16 -9 -6 -30 15 -30 15 0 20 25 6 34 -4 2 -14 1 -21 -4z"/>
<path d="M858 8643 c7 -3 16 -2 19 1 4 3 -2 6 -13 5 -11 0 -14 -3 -6 -6z"/>
<path d="M1853 8663 c-32 -37 -70 -81 -85 -98 -14 -16 -38 -43 -52 -60 -21
-25 -32 -29 -64 -26 -31 2 -46 -3 -67 -23 -15 -14 -31 -23 -36 -20 -5 3 -9 0
-9 -5 0 -6 7 -11 16 -11 8 0 12 -4 9 -10 -9 -14 22 -68 46 -80 26 -14 72 -4
94 20 19 21 23 67 6 97 -10 20 -2 32 80 125 92 105 134 158 126 158 -3 0 -32
-30 -64 -67z"/>
<path d="M1156 8501 c6 -7 27 -14 45 -17 55 -7 282 -45 309 -51 17 -4 22 -2
15 5 -11 11 -152 38 -267 51 -40 5 -82 12 -93 16 -15 6 -17 5 -9 -4z"/>
<path d="M3970 8573 c-131 -112 -95 -321 64 -368 67 -20 92 -19 151 9 93 43
139 138 116 242 -7 30 -16 54 -20 54 -3 0 -14 13 -23 28 -26 44 -93 72 -175
72 -66 0 -72 -2 -113 -37z"/>
<path d="M4673 8401 c-57 -26 -82 -55 -104 -115 -24 -64 -24 -110 0 -161 48
-104 174 -153 279 -110 151 64 170 274 34 369 -56 39 -146 47 -209 17z"/>
<path d="M5210 8292 c0 -16 28 -34 34 -23 4 6 -3 15 -14 21 -11 6 -20 7 -20 2z"/>
<path d="M5200 8256 c0 -9 5 -16 10 -16 6 0 10 4 10 9 0 6 -4 13 -10 16 -5 3
-10 -1 -10 -9z"/>
<path d="M5720 7912 c0 -14 11 -21 26 -15 8 3 11 9 8 14 -7 11 -34 12 -34 1z"/>
<path d="M5761 7886 c-9 -11 -6 -12 14 -8 14 2 28 8 31 13 9 15 -33 10 -45 -5z"/>
<path d="M5760 7855 c0 -11 24 -55 30 -55 4 0 10 14 12 30 4 26 1 30 -19 30
-13 0 -23 -2 -23 -5z"/>
<path d="M1971 7908 c-99 -28 -156 -140 -120 -235 13 -34 55 -80 91 -99 36
-19 122 -18 160 2 86 44 120 149 79 239 -24 52 -56 80 -106 94 -47 13 -58 13
-104 -1z"/>
<path d="M1525 7473 c-90 -48 -122 -161 -70 -250 33 -55 86 -83 158 -83 153 0
230 172 130 291 -14 16 -38 36 -54 44 -37 20 -126 18 -164 -2z"/>
<path d="M4020 7318 c-6 -24 -20 -73 -30 -110 -25 -84 -25 -87 6 -98 42 -17
84 -50 116 -94 17 -23 28 -32 26 -21 -3 11 -24 89 -47 173 -22 84 -41 160 -41
167 0 33 -20 22 -30 -17z"/>
<path d="M3716 7061 c-148 -148 -264 -271 -259 -274 4 -3 44 -14 88 -26 44
-11 113 -29 154 -40 l74 -19 -37 30 c-73 60 -97 165 -57 253 24 52 90 111 140
125 22 6 43 15 46 21 4 5 21 7 40 3 33 -6 33 -5 48 48 28 98 38 140 35 144 -2
2 -125 -118 -272 -265z"/>
<path d="M3800 7068 c-24 -13 -57 -40 -74 -61 -26 -32 -31 -49 -34 -105 -3
-57 0 -72 20 -102 27 -41 109 -87 119 -67 3 6 16 53 29 102 12 50 31 119 41
154 28 93 26 101 -19 101 -21 0 -58 -10 -82 -22z"/>
<path d="M3955 7078 c-2 -7 -22 -83 -45 -168 -22 -85 -43 -164 -46 -174 -6
-17 -2 -18 37 -12 89 14 178 90 199 167 20 72 -4 123 -78 170 -51 32 -61 35
-67 17z"/>
<path d="M4137 6920 c-8 -57 -27 -95 -72 -142 -43 -43 -109 -76 -171 -85 -24
-3 -43 -8 -40 -10 5 -5 367 -103 383 -103 10 0 -30 171 -80 340 l-13 45 -7
-45z"/>
<path d="M2869 7028 c5 -13 16 -24 25 -26 24 -5 19 14 -9 32 -24 16 -24 15
-16 -6z"/>
<path d="M2900 6981 c-19 -13 -12 -18 25 -23 22 -2 30 1 30 12 0 18 -34 24
-55 11z"/>
<path d="M2980 6950 c20 -13 33 -13 25 0 -3 6 -14 10 -23 10 -15 0 -15 -2 -2
-10z"/>
<path d="M2904 6918 c3 -13 6 -27 6 -33 1 -11 29 35 30 48 0 4 -10 7 -21 7
-17 0 -20 -4 -15 -22z"/>
<path d="M717 6854 c-8 -8 1 -24 14 -24 5 0 9 7 9 15 0 15 -12 20 -23 9z"/>
<path d="M2047 6839 c-64 -15 -130 -55 -180 -108 -66 -70 -89 -127 -94 -231
-6 -110 17 -177 89 -256 205 -224 563 -119 617 182 18 99 -5 192 -70 280 -80
109 -230 164 -362 133z m149 -54 c38 -58 -15 -245 -110 -383 -59 -87 -85 -108
-143 -116 -60 -9 -94 22 -101 92 -7 77 3 104 36 100 21 -2 28 -9 30 -30 2 -15
-2 -36 -7 -47 -12 -22 4 -71 23 -71 33 1 98 67 132 132 19 37 19 38 -19 38
-56 0 -77 23 -77 86 0 91 40 162 113 201 58 31 102 30 123 -2z m150 -107 c4
-6 9 -40 10 -75 3 -53 0 -67 -16 -83 -25 -25 -47 -25 -89 1 -41 25 -35 35 12
18 19 -6 42 -9 51 -6 23 9 20 44 -4 52 -11 3 -20 11 -20 17 0 5 9 12 20 15 27
7 26 41 -2 45 -12 2 -23 9 -26 16 -5 16 54 17 64 0z m-78 -239 c54 -24 84 -51
71 -64 -6 -5 -169 61 -181 73 -16 16 1 34 25 26 12 -4 50 -19 85 -35z m-48
-63 c0 -8 -19 -25 -42 -39 -41 -24 -41 -25 -19 -37 17 -8 26 -9 34 -1 17 17
40 13 33 -5 -4 -9 -1 -23 5 -30 15 -19 2 -35 -24 -28 -19 4 -26 -2 -40 -32
-12 -25 -21 -34 -28 -27 -7 7 -3 22 11 46 l21 36 -30 16 c-45 23 -40 50 16 85
53 34 63 36 63 16z"/>
<path d="M2070 6724 c-43 -39 -64 -89 -58 -144 9 -95 131 6 138 115 5 78 -17
86 -80 29z"/>
<path d="M4510 6710 c0 -5 6 -10 14 -10 8 0 18 5 21 10 3 6 -3 10 -14 10 -12
0 -21 -4 -21 -10z"/>
<path d="M4540 6692 c0 -4 9 -13 20 -20 19 -12 20 -11 8 8 -13 20 -28 27 -28
12z"/>
<path d="M4300 6280 c0 -5 12 -10 26 -10 14 0 23 4 19 10 -3 6 -15 10 -26 10
-10 0 -19 -4 -19 -10z"/>
<path d="M4310 6228 c0 -19 2 -20 10 -8 13 19 13 30 0 30 -5 0 -10 -10 -10
-22z"/>
<path d="M1431 6181 c-21 -16 -22 -19 -6 -25 19 -7 35 8 35 32 0 15 0 15 -29
-7z"/>
<path d="M1316 6155 c4 -9 11 -14 16 -13 15 5 11 23 -6 26 -11 2 -14 -2 -10
-13z"/>
<path d="M1368 6138 c-33 -11 -37 -28 -7 -28 13 0 18 4 13 13 -6 10 -4 10 7 0
17 -16 62 -17 57 -1 -6 18 -41 26 -70 16z"/>
<path d="M1460 6116 c0 -2 9 -6 20 -9 11 -3 18 -1 14 4 -5 9 -34 13 -34 5z"/>
<path d="M1389 6047 c22 -32 26 -35 32 -20 4 10 8 28 8 41 1 20 -3 22 -32 20
l-33 -2 25 -39z"/>
<path d="M3205 6090 c-3 -5 1 -10 9 -10 9 0 16 5 16 10 0 6 -4 10 -9 10 -6 0
-13 -4 -16 -10z"/>
<path d="M4850 6031 c0 -6 4 -13 10 -16 6 -3 7 1 4 9 -7 18 -14 21 -14 7z"/>
<path d="M4840 6001 c0 -5 7 -14 15 -21 12 -10 15 -10 15 3 0 8 -7 17 -15 21
-8 3 -15 2 -15 -3z"/>
<path d="M4825 5969 c-9 -14 -2 -20 14 -10 8 6 9 11 3 15 -6 3 -14 1 -17 -5z"/>
<path d="M2532 5509 c-81 -41 -114 -125 -84 -213 45 -132 214 -157 304 -45 38
47 47 127 21 179 -43 84 -158 122 -241 79z"/>
<path d="M1980 5327 c-62 -32 -83 -65 -88 -136 -4 -51 -1 -67 22 -105 47 -80
141 -107 226 -63 130 65 128 248 -4 308 -55 25 -104 24 -156 -4z"/>
<path d="M3946 5405 c-10 -26 -7 -35 9 -35 17 0 19 18 6 38 -7 11 -10 10 -15
-3z"/>
<path d="M3934 5349 c-4 -8 0 -9 15 -4 15 4 20 3 16 -7 -2 -7 7 -21 20 -31
l25 -18 -12 28 c-19 42 -48 57 -64 32z"/>
<path d="M345 5117 c-15 -12 -16 -15 -2 -20 9 -3 18 1 21 10 9 22 3 25 -19 10z"/>
<path d="M313 5085 c4 -9 7 -19 7 -21 0 -2 7 -4 15 -4 22 0 18 18 -7 31 -18
10 -20 9 -15 -6z"/>
<path d="M270 5065 c-13 -16 -3 -20 24 -9 9 3 13 10 10 15 -8 13 -20 11 -34
-6z"/>
<path d="M330 5039 c0 -5 5 -7 10 -4 6 3 10 8 10 11 0 2 -4 4 -10 4 -5 0 -10
-5 -10 -11z"/>
<path d="M2630 4930 c0 -5 5 -10 11 -10 5 0 7 5 4 10 -3 6 -8 10 -11 10 -2 0
-4 -4 -4 -10z"/>
<path d="M2630 4891 c0 -10 36 -21 44 -14 3 3 3 10 0 14 -7 12 -44 12 -44 0z"/>
<path d="M2630 4844 c0 -8 5 -12 10 -9 6 3 10 10 10 16 0 5 -4 9 -10 9 -5 0
-10 -7 -10 -16z"/>
<path d="M5370 4920 c0 -5 5 -10 11 -10 5 0 7 5 4 10 -3 6 -8 10 -11 10 -2 0
-4 -4 -4 -10z"/>
<path d="M5370 4890 c0 -5 6 -10 14 -10 8 0 18 5 21 10 3 6 -3 10 -14 10 -12
0 -21 -4 -21 -10z"/>
<path d="M5415 4870 c3 -5 11 -10 16 -10 6 0 7 5 4 10 -3 6 -11 10 -16 10 -6
0 -7 -4 -4 -10z"/>
<path d="M3640 4680 c0 -5 9 -10 21 -10 11 0 17 5 14 10 -3 6 -13 10 -21 10
-8 0 -14 -4 -14 -10z"/>
<path d="M3640 4639 c0 -5 5 -7 10 -4 6 3 10 8 10 11 0 2 -4 4 -10 4 -5 0 -10
-5 -10 -11z"/>
<path d="M3615 4380 c-3 -5 1 -10 9 -10 9 0 16 5 16 10 0 6 -4 10 -9 10 -6 0
-13 -4 -16 -10z"/>
<path d="M2255 4530 c-3 -5 -1 -10 4 -10 6 0 11 5 11 10 0 6 -2 10 -4 10 -3 0
-8 -4 -11 -10z"/>
<path d="M2217 4514 c-14 -14 -7 -35 11 -32 9 2 17 10 17 17 0 16 -18 25 -28
15z"/>
<path d="M2175 4490 c3 -5 10 -10 16 -10 5 0 9 5 9 10 0 6 -7 10 -16 10 -8 0
-12 -4 -9 -10z"/>
<path d="M2260 4481 c0 -5 9 -11 21 -14 16 -4 18 -3 8 9 -13 16 -29 19 -29 5z"/>
<path d="M2210 4454 c0 -8 5 -12 10 -9 6 3 10 10 10 16 0 5 -4 9 -10 9 -5 0
-10 -7 -10 -16z"/>
<path d="M4505 4200 c6 -29 8 -31 23 -21 9 6 7 12 -7 25 -20 18 -20 18 -16 -4z"/>
<path d="M4514 4149 c-11 -18 13 -34 31 -19 8 7 15 16 15 21 0 13 -38 11 -46
-2z"/>
<path d="M4565 4120 c-3 -5 -2 -10 4 -10 5 0 18 -3 28 -7 16 -6 16 -5 4 10
-15 19 -27 22 -36 7z"/>
<path d="M4505 4100 c3 -5 8 -10 11 -10 2 0 4 5 4 10 0 6 -5 10 -11 10 -5 0
-7 -4 -4 -10z"/>
<path d="M2354 4000 c11 -161 9 -156 66 -163 116 -14 183 -80 183 -182 0 -95
-62 -191 -157 -246 -28 -16 -46 -29 -41 -29 23 0 410 31 412 34 1 1 -24 40
-55 86 -32 47 -136 200 -232 340 -95 140 -175 257 -178 260 -2 3 -1 -42 2
-100z"/>
<path d="M2148 3701 c-91 -190 -165 -347 -163 -349 1 -2 83 3 181 10 l179 12
-50 14 c-102 29 -158 101 -157 203 1 73 25 131 71 170 20 17 45 39 57 49 11
10 32 22 46 25 26 7 26 7 21 83 -10 152 -2 161 -185 -217z"/>
<path d="M2370 3793 c2 -59 28 -364 32 -368 2 -3 26 9 51 25 56 35 102 103
116 172 10 43 8 56 -8 94 -17 37 -29 49 -73 69 -64 30 -118 33 -118 8z"/>
<path d="M2275 3775 c-103 -52 -143 -204 -78 -294 25 -34 99 -71 141 -71 l34
0 -6 63 c-3 34 -8 103 -11 152 -12 177 -15 183 -80 150z"/>
<path d="M3887 3891 c-45 -29 -78 -86 -84 -144 -14 -152 159 -256 281 -170 79
56 106 145 67 228 -35 75 -85 105 -179 105 -39 0 -66 -6 -85 -19z"/>
<path d="M4495 3732 c-57 -28 -81 -54 -100 -112 -41 -124 47 -244 177 -241 90
2 159 59 179 147 11 47 10 56 -14 107 -45 98 -152 142 -242 99z"/>
<path d="M630 3860 c11 -21 25 -26 34 -11 3 4 -6 13 -20 19 -23 11 -24 10 -14
-8z"/>
<path d="M665 3828 c-19 -11 -18 -12 10 -20 19 -5 32 -3 36 4 17 27 -11 36
-46 16z"/>
<path d="M730 3811 c0 -10 30 -24 37 -17 3 2 -5 9 -16 16 -12 6 -21 7 -21 1z"/>
<path d="M677 3770 c8 -31 23 -34 23 -6 0 16 -6 26 -14 26 -9 0 -12 -7 -9 -20z"/>
<path d="M5136 3402 c-3 -6 -1 -14 5 -17 15 -10 25 3 12 16 -7 7 -13 7 -17 1z"/>
<path d="M5180 3050 c0 -5 7 -10 15 -10 8 0 15 5 15 10 0 6 -7 10 -15 10 -8 0
-15 -4 -15 -10z"/>
<path d="M1633 3514 c-10 -26 13 -39 44 -25 27 12 27 13 8 27 -25 18 -44 18
-52 -2z"/>
<path d="M3020 3155 c7 -9 15 -13 17 -11 7 7 -7 26 -19 26 -6 0 -6 -6 2 -15z"/>
<path d="M2060 3080 c0 -5 7 -10 16 -10 8 0 12 5 9 10 -3 6 -10 10 -16 10 -5
0 -9 -4 -9 -10z"/>
<path d="M2077 3030 c3 -11 7 -20 9 -20 2 0 4 9 4 20 0 11 -4 20 -9 20 -5 0
-7 -9 -4 -20z"/>
<path d="M3495 3090 c3 -5 8 -10 11 -10 2 0 4 5 4 10 0 6 -5 10 -11 10 -5 0
-7 -4 -4 -10z"/>
<path d="M3557 3093 c-9 -2 -15 -9 -12 -14 9 -14 22 -11 29 6 3 8 4 14 3 14
-1 -1 -10 -3 -20 -6z"/>
<path d="M3510 3070 c-19 -12 -7 -22 21 -18 19 2 20 5 8 15 -9 7 -20 9 -29 3z"/>
<path d="M3510 3019 c0 -11 5 -17 10 -14 6 3 10 13 10 21 0 8 -4 14 -10 14 -5
0 -10 -9 -10 -21z"/>
<path d="M1767 2895 c3 -14 12 -25 19 -25 19 0 17 14 -5 34 -18 16 -18 16 -14
-9z"/>
<path d="M1780 2850 c8 -5 24 -10 34 -10 26 0 18 6 -19 14 -22 5 -26 4 -15 -4z"/>
<path d="M1770 2825 c0 -16 16 -20 24 -6 3 5 -1 11 -9 15 -9 3 -15 0 -15 -9z"/>
<path d="M4890 2820 c0 -5 5 -10 11 -10 5 0 7 5 4 10 -3 6 -8 10 -11 10 -2 0
-4 -4 -4 -10z"/>
<path d="M4948 2798 c9 -9 15 -9 24 0 9 9 7 12 -12 12 -19 0 -21 -3 -12 -12z"/>
<path d="M4895 2790 c-3 -5 -3 -10 2 -10 4 0 19 -3 33 -7 22 -6 24 -5 11 10
-15 19 -37 22 -46 7z"/>
<path d="M4890 2743 c0 -25 1 -26 16 -11 9 9 13 21 10 27 -13 20 -26 11 -26
-16z"/>
<path d="M3320 2746 c-107 -24 -183 -84 -232 -184 -30 -60 -33 -75 -33 -152 1
-104 29 -175 98 -244 173 -173 450 -122 556 103 22 47 26 69 25 141 0 72 -5
94 -28 141 -74 152 -229 230 -386 195z m18 -52 c45 -31 63 -106 63 -261 0
-164 -26 -240 -93 -274 -32 -16 -46 -19 -63 -11 -33 15 -75 75 -82 115 -4 30
-2 36 17 42 30 9 53 -15 52 -54 -1 -32 29 -64 53 -55 21 8 47 77 53 138 5 55
4 59 -14 51 -47 -19 -63 -17 -93 12 -51 51 -62 151 -25 224 19 38 72 89 93 89
9 0 27 -7 39 -16z m182 -39 c6 -7 12 -20 14 -27 1 -7 9 -24 19 -38 23 -33 22
-77 -2 -90 -25 -13 -91 -13 -91 0 0 6 15 10 34 10 41 0 65 23 46 45 -7 8 -21
15 -31 15 -20 0 -26 24 -9 35 6 3 10 13 10 21 0 10 -7 13 -24 8 -27 -6 -46 14
-25 27 21 13 45 11 59 -6z m89 -234 c31 -20 -3 -31 -95 -31 -72 0 -95 3 -92
13 3 6 18 15 34 18 44 10 137 10 153 0z m-89 -73 c0 -7 -9 -27 -20 -45 -12
-20 -15 -35 -9 -39 15 -9 39 3 39 21 0 22 21 18 27 -5 3 -11 12 -20 19 -20 20
0 17 -10 -11 -36 -14 -13 -25 -34 -25 -49 0 -14 -4 -25 -10 -25 -5 0 -10 18
-10 40 0 36 -3 40 -24 40 -14 0 -32 7 -41 16 -17 18 -20 10 31 89 17 27 34 33
34 13z"/>
<path d="M3265 2626 c-35 -53 -39 -138 -9 -183 19 -30 38 -29 63 3 25 32 29
117 7 169 -17 41 -39 45 -61 11z"/>
<path d="M1245 2721 c-76 -36 -115 -95 -115 -177 0 -77 42 -139 113 -169 84
-35 175 -9 232 67 20 28 30 102 21 154 -19 99 -159 169 -251 125z"/>
<path d="M1765 2408 c-115 -60 -137 -212 -44 -300 53 -50 103 -65 172 -49 40
9 63 21 89 49 48 50 58 72 58 129 0 75 -35 132 -100 166 -65 33 -119 34 -175
5z"/>
<path d="M677 2650 c6 -21 18 -26 28 -11 3 6 -3 15 -14 20 -16 9 -18 8 -14 -9z"/>
<path d="M696 2619 c-15 -9 -16 -13 -5 -20 23 -15 39 -10 39 11 0 23 -7 24
-34 9z"/>
<path d="M740 2590 c0 -5 7 -10 16 -10 8 0 12 5 9 10 -3 6 -10 10 -16 10 -5 0
-9 -4 -9 -10z"/>
<path d="M690 2558 c0 -19 2 -20 10 -8 13 19 13 30 0 30 -5 0 -10 -10 -10 -22z"/>
<path d="M1010 2165 c0 -8 4 -15 10 -15 5 0 7 7 4 15 -4 8 -8 15 -10 15 -2 0
-4 -7 -4 -15z"/>
<path d="M1010 2130 c0 -5 9 -10 21 -10 11 0 17 5 14 10 -3 6 -13 10 -21 10
-8 0 -14 -4 -14 -10z"/>
<path d="M1000 2094 c0 -14 3 -14 15 -4 8 7 15 14 15 16 0 2 -7 4 -15 4 -8 0
-15 -7 -15 -16z"/>
<path d="M3170 1614 c0 -8 5 -12 10 -9 6 4 8 11 5 16 -9 14 -15 11 -15 -7z"/>
<path d="M3241 1611 c-9 -6 -10 -11 -2 -15 13 -8 31 1 31 15 0 11 -11 11 -29
0z"/>
<path d="M3175 1580 c-11 -17 5 -30 36 -30 31 0 36 9 17 28 -15 15 -45 16 -53
2z"/>
<path d="M3135 1560 c3 -5 10 -10 16 -10 5 0 9 5 9 10 0 6 -7 10 -16 10 -8 0
-12 -4 -9 -10z"/>
<path d="M3180 1506 c0 -35 15 -40 29 -10 15 33 14 34 -9 34 -15 0 -20 -7 -20
-24z"/>
<path d="M5596 1494 c-12 -31 -6 -44 19 -44 30 0 31 5 6 36 -16 20 -20 21 -25
8z"/>
<path d="M5613 1419 c14 -8 22 -8 30 0 8 8 3 11 -18 11 -26 -1 -28 -2 -12 -11z"/>
<path d="M5578 1380 l-5 -30 24 22 c17 16 20 24 11 30 -21 13 -26 10 -30 -22z"/>
<path d="M5660 1400 c0 -9 32 -30 46 -30 4 0 -1 9 -11 20 -19 21 -35 26 -35
10z"/>
<path d="M1821 1511 c-16 -12 -20 -21 -12 -25 14 -9 28 -1 41 25 13 24 2 24
-29 0z"/>
<path d="M1776 1483 c-15 -15 -4 -33 19 -33 14 0 25 3 25 8 0 11 -37 32 -44
25z"/>
<path d="M1730 1450 c-12 -8 -11 -10 8 -10 12 0 22 5 22 10 0 13 -11 13 -30 0z"/>
<path d="M1786 1415 c4 -8 7 -15 9 -15 2 0 5 7 9 15 3 9 0 15 -9 15 -9 0 -12
-6 -9 -15z"/>
<path d="M313 1326 c4 -10 7 -24 7 -32 0 -15 35 -20 44 -5 5 8 -15 30 -43 46
-11 6 -13 4 -8 -9z"/>
<path d="M363 1267 c-40 -12 -42 -24 -6 -38 22 -8 30 -7 40 7 25 35 13 45 -34
31z"/>
<path d="M265 1240 c-17 -7 -15 -9 13 -9 17 -1 32 4 32 9 0 12 -17 12 -45 0z"/>
<path d="M420 1226 c0 -7 11 -16 25 -19 25 -4 25 -4 9 14 -20 22 -34 24 -34 5z"/>
<path d="M344 1194 c3 -9 6 -23 6 -32 1 -12 5 -10 15 8 10 19 10 27 2 32 -20
13 -30 9 -23 -8z"/>
<path d="M3000 953 c-56 -58 -38 -48 34 20 22 20 36 37 30 37 -5 0 -34 -26
-64 -57z"/>
<path d="M2925 882 c-5 -4 -17 -16 -25 -27 -11 -15 -7 -14 13 4 24 22 32 31
25 31 -2 0 -7 -4 -13 -8z"/>
<path d="M2345 870 c11 -5 29 -8 40 -8 16 0 15 2 -5 8 -34 11 -60 11 -35 0z"/>
<path d="M2425 850 c11 -5 27 -9 35 -9 9 0 8 4 -5 9 -11 5 -27 9 -35 9 -9 0
-8 -4 5 -9z"/>
<path d="M2488 833 c7 -3 16 -2 19 1 4 3 -2 6 -13 5 -11 0 -14 -3 -6 -6z"/>
<path d="M2732 800 c-12 -11 -29 -20 -39 -20 -11 0 -14 -3 -7 -8 6 -4 14 -24
18 -44 12 -66 90 -92 135 -45 18 20 21 34 19 78 l-3 54 -51 2 c-39 2 -56 -2
-72 -17z"/>
<path d="M2619 795 c18 -8 38 -15 45 -15 6 1 -4 7 -23 15 -18 8 -38 15 -45 15
-6 -1 4 -7 23 -15z"/>
<path d="M4085 959 c-42 -12 -84 -54 -107 -107 -19 -41 -19 -50 -8 -99 39
-161 249 -190 325 -44 11 23 13 44 6 106 -8 72 -12 80 -42 104 -58 46 -112 59
-174 40z"/>
<path d="M3525 771 c-81 -40 -105 -75 -105 -153 0 -102 67 -177 158 -179 89
-2 135 26 174 110 64 137 -91 289 -227 222z"/>
<path d="M5390 460 c0 -5 5 -10 11 -10 5 0 7 5 4 10 -3 6 -8 10 -11 10 -2 0
-4 -4 -4 -10z"/>
<path d="M5450 449 c0 -5 5 -7 10 -4 6 3 10 8 10 11 0 2 -4 4 -10 4 -5 0 -10
-5 -10 -11z"/>
<path d="M5395 430 c-3 -6 4 -14 17 -19 23 -8 42 4 32 21 -7 11 -42 10 -49 -2z"/>
<path d="M5355 420 c-19 -8 -19 -9 3 -9 12 -1 22 4 22 9 0 6 -1 10 -2 9 -2 0
-12 -4 -23 -9z"/>
<path d="M5458 403 c7 -3 16 -2 19 1 4 3 -2 6 -13 5 -11 0 -14 -3 -6 -6z"/>
<path d="M5400 380 c0 -5 5 -10 10 -10 6 0 10 5 10 10 0 6 -4 10 -10 10 -5 0
-10 -4 -10 -10z"/>
<path d="M4296 355 c-3 -9 0 -15 9 -15 16 0 20 16 6 24 -5 3 -11 -1 -15 -9z"/>
<path d="M4286 311 c-3 -5 1 -14 9 -21 12 -10 18 -10 30 0 18 15 11 30 -15 30
-10 0 -21 -4 -24 -9z"/>
<path d="M4270 259 c0 -18 2 -19 15 -9 15 12 12 30 -6 30 -5 0 -9 -10 -9 -21z"/>
<path d="M4336 272 c-2 -4 4 -14 15 -20 19 -12 19 -11 9 8 -12 22 -16 24 -24
12z"/>
<path d="M3434 10205 c-24 -129 76 -239 201 -220 84 12 150 95 147 184 -3 74
5 71 -177 71 l-164 0 -7 -35z"/>
<path d="M5692 10030 c79 -116 180 -265 226 -332 l82 -121 0 331 0 332 -225 0
-225 0 142 -210z m128 105 c0 -8 -4 -15 -10 -15 -5 0 -10 7 -10 15 0 8 5 15
10 15 6 0 10 -7 10 -15z m68 -76 c-2 -6 -8 -10 -13 -10 -5 0 -11 4 -13 10 -2
6 4 11 13 11 9 0 15 -5 13 -11z"/>
<path d="M1520 10200 c0 -5 7 -10 15 -10 8 0 15 5 15 10 0 6 -7 10 -15 10 -8
0 -15 -4 -15 -10z"/>
<path d="M5524 10163 c3 -26 8 -82 12 -124 l5 -77 51 -6 c59 -8 101 -27 142
-65 l29 -26 -24 37 c-58 91 -203 299 -211 304 -5 3 -7 -15 -4 -43z"/>
<path d="M3005 10148 c-108 -38 -155 -150 -105 -248 22 -44 77 -84 127 -95 68
-14 154 30 189 97 18 35 18 121 -1 157 -20 39 -69 78 -113 91 -44 12 -58 12
-97 -2z"/>
<path d="M5480 10153 c0 -5 -64 -140 -141 -299 -159 -325 -182 -375 -175 -382
5 -5 318 17 324 23 2 2 -10 6 -27 10 -45 10 -108 60 -131 104 -46 91 -11 234
70 288 21 13 41 31 44 38 2 7 18 16 35 20 l31 7 -6 91 c-4 51 -10 96 -15 102
-6 5 -9 5 -9 -2z"/>
<path d="M1290 9920 c0 -5 5 -10 11 -10 5 0 7 5 4 10 -3 6 -8 10 -11 10 -2 0
-4 -4 -4 -10z"/>
<path d="M5547 9923 c-5 -9 22 -375 28 -381 8 -8 74 39 106 75 92 106 83 245
-19 286 -51 21 -109 31 -115 20z"/>
<path d="M423 9901 c-113 -52 -131 -229 -30 -305 40 -30 69 -39 124 -38 50 1
87 19 125 59 35 37 48 73 48 133 0 39 -6 56 -32 91 -60 78 -147 100 -235 60z"/>
<path d="M5455 9893 c-106 -55 -147 -180 -92 -278 26 -46 92 -85 145 -85 l35
0 -6 73 c-4 39 -9 115 -12 167 -10 152 -11 154 -70 123z"/>
<path d="M0 9744 l0 -156 23 14 c35 24 67 88 67 137 0 53 -31 123 -65 145
l-25 16 0 -156z"/>
<path d="M5775 9777 c0 -61 -5 -80 -30 -126 -29 -53 -82 -104 -140 -134 -16
-9 -23 -16 -15 -17 25 0 393 30 396 33 2 1 -199 303 -209 314 -1 1 -2 -31 -2
-70z"/>
<path d="M324 8855 c11 -159 12 -165 46 -165 47 0 137 -39 164 -71 88 -104 22
-289 -129 -367 -28 -15 -34 -21 -20 -22 28 0 398 30 402 33 1 2 -104 158 -233
347 l-236 345 6 -100z"/>
<path d="M142 8597 c-127 -261 -142 -299 -142 -345 l0 -52 78 6 c42 4 109 9
147 13 l70 7 -42 12 c-91 26 -143 101 -143 203 0 74 26 136 73 174 18 14 41
34 53 45 11 10 32 22 47 25 l26 7 -6 86 c-3 48 -9 93 -12 100 -4 8 -66 -108
-149 -281z"/>
<path d="M340 8644 c1 -15 28 -360 30 -372 1 -7 63 32 94 58 71 63 102 191 61
254 -23 34 -81 64 -140 73 -40 5 -45 3 -45 -13z"/>
<path d="M237 8619 c-95 -50 -132 -193 -73 -282 39 -59 176 -106 176 -59 -1
13 -28 347 -30 360 -1 8 -41 -2 -73 -19z"/>
<path d="M5490 7025 c0 -6 17 -28 38 -51 176 -191 166 -178 152 -204 -37 -70
-2 -129 78 -130 30 0 72 43 72 74 0 22 6 26 58 37 31 6 71 15 87 20 26 8 25 8
-10 4 -139 -19 -138 -19 -150 -2 -16 22 -62 38 -90 31 -18 -4 -30 2 -52 27
-15 18 -53 60 -84 93 -32 34 -66 72 -78 86 -11 14 -20 20 -21 15z"/>
<path d="M5273 6198 c-104 -74 -94 -229 17 -286 86 -45 191 -6 225 82 45 117
-30 226 -154 226 -42 0 -64 -6 -88 -22z"/>
<path d="M5825 6106 c-50 -22 -83 -69 -90 -130 -4 -30 -4 -63 0 -75 9 -31 53
-79 86 -96 37 -20 128 -19 157 1 21 14 22 22 22 148 l0 134 -40 16 c-48 19
-94 20 -135 2z"/>
<path d="M83 5246 l-83 -31 0 -140 0 -140 36 65 c67 122 135 262 132 269 -2 5
-40 -6 -85 -23z"/>
<path d="M565 4739 c-27 -33 -54 -68 -58 -77 -4 -9 3 -4 15 12 13 16 40 49 61
73 33 40 42 53 35 53 -2 0 -25 -27 -53 -61z"/>
<path d="M5693 4670 c-128 -27 -226 -116 -265 -244 -61 -199 69 -408 278 -445
92 -17 167 -1 254 54 l40 25 0 70 c0 58 -3 70 -16 70 -14 0 -15 -7 -10 -45 9
-55 -8 -61 -21 -7 -8 35 -11 37 -43 34 -58 -4 -64 6 -45 72 15 53 27 67 39 48
3 -5 1 -26 -5 -46 -6 -21 -9 -40 -6 -42 10 -10 37 10 37 27 0 10 7 19 15 19 8
0 15 -7 15 -16 0 -11 5 -14 16 -10 9 3 18 6 20 6 2 0 4 76 4 169 l0 170 -37
30 c-63 52 -183 79 -270 61z m118 -70 c10 -6 19 -17 19 -25 0 -8 14 -21 30
-30 17 -9 30 -20 30 -24 0 -5 3 -16 6 -25 9 -24 -40 -66 -76 -66 -38 0 -32 15
9 23 17 4 32 14 36 26 9 31 -3 44 -37 37 -28 -6 -29 -5 -23 23 7 32 -9 51 -28
32 -16 -16 -37 -14 -37 4 0 13 26 34 43 35 5 0 17 -5 28 -10z m-162 -35 c41
-35 64 -75 101 -174 33 -91 55 -216 46 -266 -9 -48 -58 -95 -99 -95 -74 0
-159 112 -101 134 29 11 56 -17 59 -59 0 -5 13 -14 28 -20 24 -8 31 -6 43 10
16 21 18 91 5 148 -12 51 -17 54 -44 29 -30 -28 -60 -28 -98 1 -65 47 -93 149
-64 232 30 89 67 107 124 60z m329 -177 c-5 -15 -133 -67 -165 -68 -13 0 -23
4 -23 9 0 14 21 27 80 49 63 24 114 28 108 10z"/>
<path d="M5572 4505 c-27 -60 5 -175 56 -198 69 -32 69 126 0 200 -28 30 -42
29 -56 -2z"/>
<path d="M455 4600 c-10 -11 -14 -20 -9 -20 5 0 15 9 22 20 7 11 11 20 9 20
-2 0 -12 -9 -22 -20z"/>
<path d="M390 4520 c0 -5 -23 -10 -50 -10 -42 0 -56 -5 -77 -27 l-27 -26 -103
12 c-57 6 -111 14 -121 17 -14 5 -14 4 -2 -4 8 -5 55 -15 105 -21 120 -16 125
-18 125 -48 0 -29 52 -83 82 -83 28 0 76 27 88 49 13 26 13 53 -2 88 -6 15
-10 36 -9 46 1 9 0 17 -3 17 -3 0 -6 -4 -6 -10z"/>
<path d="M550 3450 c0 -5 5 -10 10 -10 6 0 10 5 10 10 0 6 -4 10 -10 10 -5 0
-10 -4 -10 -10z"/>
<path d="M694 3305 c-25 -19 -6 -19 37 0 32 13 32 14 8 15 -14 0 -34 -7 -45
-15z"/>
<path d="M40 2521 c-32 -5 -35 -9 -38 -42 l-3 -37 47 24 c74 37 117 29 137
-28 17 -47 -58 -226 -139 -331 l-44 -57 0 -99 0 -99 42 -6 c98 -15 214 28 288
105 63 65 91 137 91 231 0 83 -13 126 -59 196 -68 103 -203 163 -322 143z
m258 -164 c13 -16 14 -125 1 -149 -18 -33 -109 -15 -109 21 0 8 10 6 31 -4 17
-9 37 -14 45 -11 19 7 18 36 -3 51 -18 13 -10 35 13 35 21 0 17 28 -6 35 -11
3 -20 13 -20 21 0 17 34 19 48 1z m-87 -223 c61 -32 90 -64 58 -64 -26 0 -159
72 -159 85 0 23 27 18 101 -21z m-58 -73 c-11 -9 -29 -21 -39 -27 -16 -10 -17
-14 -6 -25 10 -11 17 -11 32 -1 20 12 36 1 25 -18 -4 -6 -2 -17 5 -25 13 -16
-1 -28 -23 -19 -10 3 -24 -6 -38 -25 -26 -35 -48 -31 -25 5 21 32 20 51 -4 64
-35 19 -24 47 28 74 50 25 79 24 45 -3z"/>
<path d="M5464 2460 c6 -27 45 -195 52 -220 3 -11 19 -15 66 -15 130 -1 197
-58 206 -175 4 -58 1 -76 -22 -126 -30 -64 -63 -104 -114 -136 -18 -11 -31
-22 -28 -25 4 -4 329 71 362 84 8 3 14 19 14 35 0 31 -33 69 -331 383 -210
221 -210 221 -205 195z"/>
<path d="M40 2402 c-38 -38 -40 -43 -40 -101 0 -70 10 -76 58 -36 33 28 75
116 70 148 -5 38 -44 33 -88 -11z"/>
<path d="M5351 2143 c-46 -153 -97 -320 -113 -371 -16 -51 -28 -97 -26 -101 2
-5 37 0 78 9 41 10 120 28 175 41 l100 23 -55 8 c-70 11 -122 45 -157 105 -51
88 -33 213 41 282 14 14 26 30 26 37 0 7 16 18 36 26 28 10 34 17 30 33 -3 11
-13 54 -22 95 -9 41 -19 78 -23 83 -4 4 -44 -118 -90 -270z"/>
<path d="M0 2173 c1 -27 1 -27 15 -9 19 25 19 36 0 36 -10 0 -15 -10 -15 -27z"/>
<path d="M5542 2192 c-11 -7 -5 -45 29 -193 23 -101 45 -188 49 -192 4 -5 30
14 58 42 105 105 112 270 12 321 -43 22 -129 35 -148 22z"/>
<path d="M5465 2156 c-91 -39 -139 -166 -99 -262 21 -50 40 -72 86 -95 39 -20
123 -26 133 -9 3 5 -1 36 -9 67 -28 110 -56 229 -56 243 -1 8 -6 27 -13 42
-11 25 -14 26 -42 14z"/>
<path d="M690 933 c-22 -37 -43 -73 -95 -169 l-26 -46 42 -36 c47 -40 99 -116
99 -144 0 -10 5 -18 11 -18 5 0 8 4 5 9 -3 4 -6 106 -6 225 -1 119 -3 216 -5
216 -2 0 -13 -17 -25 -37z"/>
<path d="M626 935 c-10 -8 -156 -96 -322 -197 l-304 -182 0 -71 0 -71 88 -47
c48 -26 103 -57 122 -69 l35 -22 -32 37 c-55 63 -67 95 -68 174 0 67 2 75 40
129 56 82 109 115 193 122 37 3 70 9 73 14 4 6 22 5 48 -3 22 -7 43 -10 45 -8
11 14 107 201 105 204 -2 2 -13 -3 -23 -10z"/>
<path d="M314 686 c-146 -68 -184 -236 -77 -344 24 -24 49 -42 55 -40 6 2 25
31 43 63 18 33 64 118 104 189 39 72 71 131 71 133 0 6 -79 23 -110 23 -19 0
-58 -11 -86 -24z"/>
<path d="M537 658 c-19 -32 -107 -188 -157 -280 -23 -43 -39 -82 -35 -88 10
-17 111 -11 167 10 88 33 168 122 168 188 0 57 -43 131 -100 172 l-29 21 -14
-23z"/>
<path d="M701 422 c-50 -110 -165 -175 -309 -175 -45 0 -81 -1 -79 -3 2 -3 94
-54 227 -127 135 -74 184 -97 189 -90 3 4 4 107 1 228 l-5 220 -24 -53z"/>
<path d="M0 185 l0 -185 337 0 c185 0 334 2 332 4 -6 6 -74 44 -434 241 -22
12 -80 45 -130 74 -49 28 -93 51 -97 51 -4 0 -8 -83 -8 -185z"/>
</g>
</svg>
